<?xml version="1.0" encoding="UTF-8"?>
<svg version="1.1" xmlns="http://www.w3.org/2000/svg" width="1024" height="1024">
<path d="M0 0 C337.92 0 675.84 0 1024 0 C1024 337.92 1024 675.84 1024 1024 C686.08 1024 348.16 1024 0 1024 C0 686.08 0 348.16 0 0 Z " fill="#1B1C1E" transform="translate(0,0)"/>
<path d="M0 0 C1.45660034 0.00131424 1.45660034 0.00131424 2.94262695 0.00265503 C30.84885969 0.08499699 57.24722341 3.96378962 84.1875 11.375 C85.00089844 11.59800781 85.81429688 11.82101563 86.65234375 12.05078125 C129.30562374 24.00604056 167.38348235 46.06129931 201.1875 74.375 C201.73164551 74.82746094 202.27579102 75.27992188 202.83642578 75.74609375 C213.35744013 84.51212095 223.42822157 93.69316939 232.3046875 104.15625 C233.78800772 105.90422901 235.2992041 107.62855359 236.8203125 109.34375 C250.45235016 124.78460612 261.69054605 141.6865159 272.1875 159.375 C272.63722168 160.12716797 273.08694336 160.87933594 273.55029297 161.65429688 C309.64637852 222.50237445 323.32293974 300.65184759 312.62744141 370.5 C312.20238411 373.2777329 311.82391626 376.05884961 311.44921875 378.84375 C307.8261398 403.87124398 300.04149034 429.12559014 290.1875 452.375 C289.68814941 453.57938721 289.68814941 453.57938721 289.17871094 454.80810547 C283.27769 468.95097887 275.9846792 482.19732552 268.1875 495.375 C267.51219238 496.5204126 267.51219238 496.5204126 266.82324219 497.68896484 C256.09007517 515.75522326 243.03103666 532.21165823 228.75 547.59375 C226.6409211 549.88287222 224.58771288 552.19975164 222.5625 554.5625 C216.28549361 561.7617206 209.49867191 568.11865743 202.0390625 574.078125 C200.17567709 575.57904366 198.33559357 577.10948824 196.5234375 578.671875 C160.92001833 609.36101941 116.59557003 629.40074711 71.1875 640.375 C70.35766602 640.58350586 69.52783203 640.79201172 68.67285156 641.00683594 C-8.9112728 660.36206764 -95.28402475 643.6564696 -163.15722656 603.01855469 C-169.31425002 599.2074953 -175.20009305 595.037029 -181.0078125 590.71679688 C-182.67197005 589.47948493 -184.35097993 588.26221598 -186.03125 587.046875 C-198.90293525 577.63022105 -210.34339966 567.03738193 -221.625 555.8125 C-222.16079681 555.28197021 -222.69659363 554.75144043 -223.24862671 554.20483398 C-230.24163058 547.26498492 -236.70871648 540.12563513 -242.8125 532.375 C-243.98523109 530.92672208 -245.15837945 529.47878189 -246.33203125 528.03125 C-254.63973559 517.61074652 -262.01727773 506.83693753 -268.8125 495.375 C-269.44551025 494.30958984 -269.44551025 494.30958984 -270.09130859 493.22265625 C-290.93596898 457.75784001 -304.22088561 420.26612232 -311.625 379.875 C-311.82005127 378.81539062 -312.01510254 377.75578125 -312.21606445 376.6640625 C-315.29375517 358.89572721 -316.22317079 341.19494309 -316.1875 323.1875 C-316.18695618 322.14518219 -316.18641235 321.10286438 -316.18585205 320.02896118 C-316.02129317 250.97412899 -293.93949969 183.9470214 -252.8125 128.375 C-252.37695801 127.78638184 -251.94141602 127.19776367 -251.49267578 126.59130859 C-238.56404592 109.23881077 -224.26965325 92.47403929 -207.8125 78.375 C-206.7919291 77.46992096 -205.77246352 76.56359455 -204.75390625 75.65625 C-191.4453499 63.89967184 -177.21616676 53.19918371 -161.73876953 44.46240234 C-159.69189795 43.30691869 -157.65685886 42.13195854 -155.62109375 40.95703125 C-124.7451308 23.29789363 -91.74899673 11.05751838 -56.75 4.625 C-55.67556641 4.42608154 -54.60113281 4.22716309 -53.49414062 4.0222168 C-35.76054822 0.94471502 -17.97275857 -0.04017668 0 0 Z " fill="#1B1C1E" transform="translate(511.8125,189.625)"/>
<path d="M0 0 C1.45660034 0.00131424 1.45660034 0.00131424 2.94262695 0.00265503 C30.84885969 0.08499699 57.24722341 3.96378962 84.1875 11.375 C85.00089844 11.59800781 85.81429688 11.82101563 86.65234375 12.05078125 C129.30562374 24.00604056 167.38348235 46.06129931 201.1875 74.375 C201.73164551 74.82746094 202.27579102 75.27992188 202.83642578 75.74609375 C213.35744013 84.51212095 223.42822157 93.69316939 232.3046875 104.15625 C233.78800772 105.90422901 235.2992041 107.62855359 236.8203125 109.34375 C250.45235016 124.78460612 261.69054605 141.6865159 272.1875 159.375 C272.63722168 160.12716797 273.08694336 160.87933594 273.55029297 161.65429688 C309.64637852 222.50237445 323.32293974 300.65184759 312.62744141 370.5 C312.20238411 373.2777329 311.82391626 376.05884961 311.44921875 378.84375 C307.8261398 403.87124398 300.04149034 429.12559014 290.1875 452.375 C289.68814941 453.57938721 289.68814941 453.57938721 289.17871094 454.80810547 C283.27769 468.95097887 275.9846792 482.19732552 268.1875 495.375 C267.51219238 496.5204126 267.51219238 496.5204126 266.82324219 497.68896484 C256.09007517 515.75522326 243.03103666 532.21165823 228.75 547.59375 C226.6409211 549.88287222 224.58771288 552.19975164 222.5625 554.5625 C216.28549361 561.7617206 209.49867191 568.11865743 202.0390625 574.078125 C200.17567709 575.57904366 198.33559357 577.10948824 196.5234375 578.671875 C160.92001833 609.36101941 116.59557003 629.40074711 71.1875 640.375 C70.35766602 640.58350586 69.52783203 640.79201172 68.67285156 641.00683594 C-8.9112728 660.36206764 -95.28402475 643.6564696 -163.15722656 603.01855469 C-169.31425002 599.2074953 -175.20009305 595.037029 -181.0078125 590.71679688 C-182.67197005 589.47948493 -184.35097993 588.26221598 -186.03125 587.046875 C-198.90293525 577.63022105 -210.34339966 567.03738193 -221.625 555.8125 C-222.16079681 555.28197021 -222.69659363 554.75144043 -223.24862671 554.20483398 C-230.24163058 547.26498492 -236.70871648 540.12563513 -242.8125 532.375 C-243.98523109 530.92672208 -245.15837945 529.47878189 -246.33203125 528.03125 C-254.63973559 517.61074652 -262.01727773 506.83693753 -268.8125 495.375 C-269.44551025 494.30958984 -269.44551025 494.30958984 -270.09130859 493.22265625 C-290.93596898 457.75784001 -304.22088561 420.26612232 -311.625 379.875 C-311.82005127 378.81539062 -312.01510254 377.75578125 -312.21606445 376.6640625 C-315.29375517 358.89572721 -316.22317079 341.19494309 -316.1875 323.1875 C-316.18695618 322.14518219 -316.18641235 321.10286438 -316.18585205 320.02896118 C-316.02129317 250.97412899 -293.93949969 183.9470214 -252.8125 128.375 C-252.37695801 127.78638184 -251.94141602 127.19776367 -251.49267578 126.59130859 C-238.56404592 109.23881077 -224.26965325 92.47403929 -207.8125 78.375 C-206.7919291 77.46992096 -205.77246352 76.56359455 -204.75390625 75.65625 C-191.4453499 63.89967184 -177.21616676 53.19918371 -161.73876953 44.46240234 C-159.69189795 43.30691869 -157.65685886 42.13195854 -155.62109375 40.95703125 C-124.7451308 23.29789363 -91.74899673 11.05751838 -56.75 4.625 C-55.67556641 4.42608154 -54.60113281 4.22716309 -53.49414062 4.0222168 C-35.76054822 0.94471502 -17.97275857 -0.04017668 0 0 Z M-170.8125 70.375 C-171.54823242 70.89980957 -172.28396484 71.42461914 -173.04199219 71.96533203 C-193.68510217 86.82290159 -213.40375119 104.04529349 -228.8125 124.375 C-229.59238281 125.36113281 -230.37226563 126.34726562 -231.17578125 127.36328125 C-281.06145257 190.62218369 -305.93110389 268.8571146 -297.6472168 361.48339844 C-290.49620179 421.59409943 -266.51117136 484.41593008 -224.19140625 528.85546875 C-222.25726612 530.90394229 -220.41199381 532.98398996 -218.57421875 535.1171875 C-208.67684955 546.47876678 -197.80035915 557.23671393 -185.8125 566.375 C-184.58735516 567.35007356 -183.36349644 568.32676431 -182.140625 569.3046875 C-131.10673175 609.71806369 -67.98256159 631.5797101 -3 631.625 C-1.68832855 631.62601212 -1.68832855 631.62601212 -0.35015869 631.62704468 C23.93386482 631.59751818 47.66402622 629.76678359 71.1875 623.375 C72.13077148 623.12766113 73.07404297 622.88032227 74.04589844 622.62548828 C89.93524311 618.43063809 105.09639039 612.86155282 120.1875 606.375 C120.98236816 606.03355957 121.77723633 605.69211914 122.59619141 605.34033203 C149.34449466 593.67534662 173.20479816 577.43717872 194.62890625 557.71484375 C196.82561903 555.70594152 199.05299369 553.74985887 201.3125 551.8125 C208.51700456 545.53618314 214.98823386 538.6297185 221.1875 531.375 C222.09157022 530.34558268 222.99659738 529.31700534 223.90234375 528.2890625 C252.50378781 495.65522228 275.3129061 455.67945049 286.56103516 413.68701172 C287.1702121 411.43880218 287.82000641 409.2062651 288.48046875 406.97265625 C291.33039726 397.08594773 293.24077661 387.07800899 294.9375 376.9375 C295.14834229 375.68146973 295.35918457 374.42543945 295.57641602 373.13134766 C297.44282809 361.56556166 298.34267831 350.17339533 298.35546875 338.4609375 C298.35879715 337.36641266 298.36212555 336.27188782 298.36555481 335.14419556 C298.3705814 332.84336767 298.37296447 330.54253259 298.37280273 328.24169922 C298.37498144 324.77949581 298.3931623 321.31761572 298.41210938 317.85546875 C298.44390168 305.20961183 297.95303522 292.89874984 296.1875 280.375 C296.02169434 279.10865723 295.85588867 277.84231445 295.68505859 276.53759766 C291.63862487 245.96000139 282.78104592 216.08155558 269.1875 188.375 C268.77661133 187.53404785 268.36572266 186.6930957 267.94238281 185.82666016 C251.66280802 152.86331946 228.74299686 118.8218449 200.1796875 95.05859375 C197.76600506 93.01879545 195.49100482 90.85088064 193.1875 88.6875 C154.21260631 53.28975409 104.87035741 31.70147619 53.75 21.0625 C53.05551758 20.91514404 52.36103516 20.76778809 51.64550781 20.6159668 C35.5111794 17.47628387 19.24012533 17.02708044 2.85571289 17.05932617 C-0.47868806 17.06247984 -3.81219251 17.03894467 -7.14648438 17.01367188 C-65.69484172 16.84331566 -123.2592799 36.44081701 -170.8125 70.375 Z " fill="#B6B6B6" transform="translate(511.8125,189.625)"/>
<path d="M0 0 C14.87718123 12.32947855 26.99997873 29.38194113 31.12646484 48.53369141 C31.12646484 51.50369141 31.12646484 54.47369141 31.12646484 57.53369141 C15.94646484 57.53369141 0.76646484 57.53369141 -14.87353516 57.53369141 C-16.19353516 53.24369141 -17.51353516 48.95369141 -18.87353516 44.53369141 C-26.74509834 31.61244619 -36.25682529 24.99589546 -50.86328125 21.15112305 C-55.849029 20.12849887 -60.73581511 20.04452384 -65.81103516 20.09619141 C-66.86572998 20.10448975 -67.9204248 20.11278809 -69.00708008 20.12133789 C-83.63569183 20.43937579 -94.85577652 25.66833874 -105.56103516 35.65869141 C-122.85165268 53.96822032 -127.48899518 78.61963684 -127.08837891 102.97119141 C-126.37471927 123.46785087 -120.94996065 146.61211884 -106.54931641 162.02197266 C-94.14153248 173.2150085 -80.05604226 178.08464327 -63.52197266 177.77978516 C-49.48583003 176.83302179 -35.4480013 172.30755072 -25.87353516 161.53369141 C-20.46840515 154.41934165 -18.02035019 148.18743274 -14.87353516 139.53369141 C0.63646484 139.53369141 16.14646484 139.53369141 32.12646484 139.53369141 C29.78943436 152.38735905 29.78943436 152.38735905 27.37646484 158.53369141 C27.11115967 159.21665283 26.84585449 159.89961426 26.57250977 160.60327148 C17.4359205 183.5839972 0.55820886 199.50361565 -21.87353516 209.53369141 C-47.82753005 220.41658549 -78.9871116 221.31931217 -105.25170898 210.92871094 C-107.13461758 210.1496578 -109.00554343 209.34778756 -110.87353516 208.53369141 C-112.46101563 207.855 -112.46101563 207.855 -114.08056641 207.16259766 C-138.16102859 196.02183337 -155.08536858 174.20133103 -164.34228516 149.77978516 C-170.19606612 132.9501649 -173.10781387 116.60097652 -173.12353516 98.78369141 C-173.1242099 98.09627869 -173.12488464 97.40886597 -173.12557983 96.70062256 C-173.08798974 72.51438096 -168.69709178 50.73943187 -156.87353516 29.53369141 C-156.07496094 28.07189453 -156.07496094 28.07189453 -155.26025391 26.58056641 C-142.19308128 4.40204017 -119.30555999 -11.4293307 -94.62353516 -17.96630859 C-62.79277439 -25.74396055 -26.14822604 -20.46471795 0 0 Z " fill="#D6D5D6" transform="translate(505.87353515625,406.46630859375)"/>
<path d="M0 0 C15.51 0 31.02 0 47 0 C47.06787029 24.21855604 47.12307081 48.4370344 47.15543652 72.65566158 C47.17086773 83.90223039 47.19188519 95.14873566 47.22631836 106.39526367 C47.25633587 116.20427625 47.27560219 126.01324278 47.28226548 135.82230002 C47.28615691 141.01017656 47.29522321 146.19792143 47.31719017 151.38575554 C47.33775101 156.28178477 47.34379475 161.17762974 47.33932304 166.07369804 C47.34013957 167.85811875 47.34598731 169.64254647 47.35761642 171.42692947 C47.49816505 194.13168399 44.40160737 217.97537699 28.25 235.25 C10.82461752 251.6365616 -10.62311018 254.73139802 -33.53125 254.28515625 C-52.83937146 253.61983892 -69.97576915 247.11303422 -83.4453125 232.90234375 C-89.5375453 225.44777748 -95.17263921 215.79473617 -95 206 C-91.0842316 204.26879427 -87.1672178 202.54042337 -83.25 200.8125 C-82.15816406 200.32974609 -81.06632812 199.84699219 -79.94140625 199.34960938 C-76.6315358 197.89052447 -73.31745408 196.44175657 -70 195 C-68.31680664 194.26789307 -68.31680664 194.26789307 -66.59960938 193.52099609 C-64.99569336 192.83577881 -64.99569336 192.83577881 -63.359375 192.13671875 C-62.39999023 191.72510498 -61.44060547 191.31349121 -60.45214844 190.8894043 C-58 190 -58 190 -55 190 C-54.92523437 190.61746094 -54.85046875 191.23492188 -54.7734375 191.87109375 C-53.72076559 198.65153926 -51.74397789 203.93642781 -47 209 C-44.13393258 211.0182895 -41.19404455 212.56906804 -38 214 C-37.34 214.33 -36.68 214.66 -36 215 C-26.25119568 215.68748793 -17.05805196 216.17346915 -9.234375 209.4921875 C-2.17729937 202.12679303 -0.85501728 191.99239491 -0.84178162 182.18559265 C-0.83684364 181.40544558 -0.83190566 180.62529851 -0.82681805 179.82151061 C-0.81147842 177.21133144 -0.80309202 174.6011768 -0.79467773 171.9909668 C-0.78509643 170.11832972 -0.7750862 168.2456948 -0.76467896 166.37306213 C-0.73765117 161.29088944 -0.71663007 156.20870748 -0.69667697 151.12650275 C-0.67480432 145.81469012 -0.64742188 140.50290598 -0.62062073 135.19111633 C-0.57071116 125.13316373 -0.52576587 115.07519529 -0.48259836 105.01721174 C-0.43321117 93.56626702 -0.37829853 82.1153509 -0.32291877 70.66443384 C-0.20912535 47.10964792 -0.10300997 23.55483571 0 0 Z " fill="#D4D4D4" transform="translate(578,436)"/>
<path d="M0 0 C4.84251165 3.67331207 8.22982104 7.714089 10.0546875 13.55859375 C12.01239319 35.20717647 3.75291724 54.05858619 -9.72583008 70.6652832 C-25.93097462 89.9800258 -44.79186392 102.36787242 -68.9453125 109.55859375 C-69.95207031 109.87957031 -70.95882812 110.20054687 -71.99609375 110.53125 C-82.4355021 113.56842564 -93.58656901 114.64161192 -103.6328125 109.93359375 C-110.57900763 105.91458925 -114.40070465 101.27068282 -116.9453125 93.55859375 C-119.03775365 76.92368662 -112.71788022 63.01034201 -102.8828125 49.78515625 C-100.63348799 46.98153391 -98.31435213 44.26172872 -95.9453125 41.55859375 C-95.0996875 40.57890625 -94.2540625 39.59921875 -93.3828125 38.58984375 C-74.98538871 17.63910104 -29.29478206 -17.40918867 0 0 Z " fill="#1B1C1E" transform="translate(683.9453125,294.44140625)"/>
<path d="M0 0 C4.84251165 3.67331207 8.22982104 7.714089 10.0546875 13.55859375 C12.01239319 35.20717647 3.75291724 54.05858619 -9.72583008 70.6652832 C-25.93097462 89.9800258 -44.79186392 102.36787242 -68.9453125 109.55859375 C-69.95207031 109.87957031 -70.95882812 110.20054687 -71.99609375 110.53125 C-82.4355021 113.56842564 -93.58656901 114.64161192 -103.6328125 109.93359375 C-110.57900763 105.91458925 -114.40070465 101.27068282 -116.9453125 93.55859375 C-119.03775365 76.92368662 -112.71788022 63.01034201 -102.8828125 49.78515625 C-100.63348799 46.98153391 -98.31435213 44.26172872 -95.9453125 41.55859375 C-95.0996875 40.57890625 -94.2540625 39.59921875 -93.3828125 38.58984375 C-74.98538871 17.63910104 -29.29478206 -17.40918867 0 0 Z M-92.21582031 58.23828125 C-98.79322923 67.41654405 -105.00996973 77.89260647 -104.39453125 89.5859375 C-103.53928442 93.34158663 -101.82123264 94.99527363 -98.9453125 97.55859375 C-90.95333237 101.64751381 -81.48514969 99.63979365 -73.3203125 97.05859375 C-72.03096802 96.66027344 -72.03096802 96.66027344 -70.71557617 96.25390625 C-44.67117246 87.85730027 -23.2065329 70.58157259 -9.9453125 46.55859375 C-8.04262906 42.62823307 -6.41420192 38.66901541 -4.9453125 34.55859375 C-4.5121875 33.38296875 -4.0790625 32.20734375 -3.6328125 30.99609375 C-2.4261968 24.96301523 -1.56271467 18.97813996 -4.6953125 13.49609375 C-8.89521085 9.87951462 -12.33004299 8.99274307 -17.79296875 9.12109375 C-46.97740603 13.17147414 -75.0464791 35.53938279 -92.21582031 58.23828125 Z " fill="#B5B5B6" transform="translate(683.9453125,294.44140625)"/>
<path d="M0 0 C0 5.28 0 10.56 0 16 C-1.4025 16.226875 -2.805 16.45375 -4.25 16.6875 C-7.7077026 17.45406614 -8.85149443 17.85891971 -11.5 20.375 C-14.02324886 24.7906855 -14.09509364 28.29225374 -13.95703125 33.34765625 C-13.93576172 34.59353516 -13.91449219 35.83941406 -13.89257812 37.12304688 C-13.83974287 39.72228357 -13.77489512 42.32130751 -13.69726562 44.91992188 C-13.56607599 54.38015255 -14.83249736 61.99330228 -19.9375 70.0625 C-22.18348362 72.1723634 -24.06826432 73.10419187 -27 74 C-26.29875 74.66 -25.5975 75.32 -24.875 76 C-17.35547434 83.56237196 -13.74746261 90.25713256 -13.62109375 101.1015625 C-13.60409927 101.86044769 -13.5871048 102.61933289 -13.56959534 103.4012146 C-13.51679701 105.80906006 -13.47631712 108.21689188 -13.4375 110.625 C-13.39344348 113.04016405 -13.34666724 115.45520179 -13.29469299 117.87020874 C-13.26295592 119.36817849 -13.2359992 120.86625928 -13.21446228 122.3644104 C-13.15153587 127.27086585 -13.15153587 127.27086585 -12 132 C-8.5538027 134.61910994 -4.1701575 134.58298425 0 135 C0 139.95 0 144.9 0 150 C-9.02256764 150.41011671 -15.0693873 150.40375288 -21.9375 144.26953125 C-29.47591429 136.40131134 -30.32038149 128.5761459 -30.16601562 117.93554688 C-30.13185547 116.61619141 -30.09769531 115.29683594 -30.0625 113.9375 C-29.1763342 100.35729767 -29.1763342 100.35729767 -34.125 88.1875 C-37.6561665 85.50074288 -40.78660906 84.35685471 -45 83 C-45 78.05 -45 73.1 -45 68 C-43.5975 67.4225 -42.195 66.845 -40.75 66.25 C-37.13458789 64.6412553 -34.46865572 63.18868031 -32 60 C-30.80880876 56.42642629 -30.84586522 53.15723712 -30.82421875 49.4375 C-30.80099281 47.90233046 -30.77687441 46.36717421 -30.75195312 44.83203125 C-30.71708696 42.42748472 -30.68763205 40.02341891 -30.67407227 37.61865234 C-30.59948661 26.5409616 -29.94816569 17.2706161 -23.875 7.625 C-16.4705254 0.86439275 -9.85858235 -0.63196041 0 0 Z " fill="#B4B5B5" transform="translate(283,432)"/>
<path d="M0 0 C6.6 0 13.2 0 20 0 C21.27836793 23.33021481 21.0964813 46.64261978 21 70 C14.11210821 71.28146824 8.33329772 71 1 71 C0.67 47.57 0.34 24.14 0 0 Z " fill="#B2B2B2" transform="translate(749,512)"/>
<path d="M0 0 C9.46425487 4.9524704 9.46425487 4.9524704 12.3984375 8.28125 C10.70483897 9.48967172 8.99280704 10.67228622 7.2734375 11.84375 C6.32210937 12.50503906 5.37078125 13.16632813 4.390625 13.84765625 C0.7743997 15.58023417 -0.79954424 15.38373226 -4.6015625 14.28125 C-6.7265625 13.37890625 -6.7265625 13.37890625 -8.6015625 12.34375 C-15.64672878 8.67439256 -21.57068535 7.07821416 -29.4765625 8.96875 C-32.37626927 10.75974536 -32.81075043 11.97421769 -33.6015625 15.28125 C-34.21588759 22.53028602 -32.70391107 29.30247688 -29.29296875 35.7578125 C-28.6015625 38.28125 -28.6015625 38.28125 -29.90234375 40.88671875 C-30.56621094 41.73878906 -31.23007812 42.59085937 -31.9140625 43.46875 C-32.57019531 44.32855469 -33.22632813 45.18835938 -33.90234375 46.07421875 C-34.46308594 46.80253906 -35.02382813 47.53085937 -35.6015625 48.28125 C-35.9315625 48.94125 -36.2615625 49.60125 -36.6015625 50.28125 C-37.2615625 50.28125 -37.9215625 50.28125 -38.6015625 50.28125 C-45.2881162 38.14131849 -49.21425357 26.29553543 -47.6015625 12.28125 C-46.68433435 9.22538274 -45.44647739 6.8680013 -43.6015625 4.28125 C-43.0653125 3.394375 -42.5290625 2.5075 -41.9765625 1.59375 C-29.92410356 -10.14153897 -13.82361244 -6.59695171 0 0 Z " fill="#B5B6B6" transform="translate(611.6015625,277.71875)"/>
<path d="M0 0 C6.27 0 12.54 0 19 0 C19 20.13 19 40.26 19 61 C12.73 61 6.46 61 0 61 C0 40.87 0 20.74 0 0 Z " fill="#BDBDBE" transform="translate(667,521)"/>
<path d="M0 0 C2.76853365 2.421458 4.07330877 4.90748927 5.5625 8.25 C5.97628906 9.16265625 6.39007812 10.0753125 6.81640625 11.015625 C10.46177251 20.20724158 11.89219586 30.40265639 9.125 40.05078125 C6.14502442 46.51066252 1.90492247 51.37622648 -4.71484375 54.12890625 C-15.82539962 57.07498706 -27.05224092 55.60744838 -37 50 C-45.52209661 44.95580678 -45.52209661 44.95580678 -47 42 C-45.09118566 40.96455826 -43.17260796 39.94709915 -41.25 38.9375 C-40.18265625 38.36902344 -39.1153125 37.80054688 -38.015625 37.21484375 C-35 36 -35 36 -32.8984375 36.1875 C-30.71268598 37.12296567 -28.53960282 38.07891012 -26.375 39.0625 C-20.15259019 41.58087561 -14.33116248 42.31858515 -8 39.8125 C-4.96222851 37.05951958 -4.21425113 34.85244823 -3.74609375 30.8046875 C-3.45760869 24.8674788 -4.6430059 20.55957702 -7.22265625 15.2265625 C-8.15493348 12.55622068 -8.08894821 11.59129342 -7 9 C-5.37109375 6.640625 -5.37109375 6.640625 -3.4375 4.25 C-2.47650391 3.05117188 -2.47650391 3.05117188 -1.49609375 1.828125 C-1.00238281 1.22484375 -0.50867188 0.6215625 0 0 Z " fill="#B5B5B5" transform="translate(697,364)"/>
<path d="M0 0 C6.6 0 13.2 0 20 0 C20 13.2 20 26.4 20 40 C13.4 40 6.8 40 0 40 C0 26.8 0 13.6 0 0 Z " fill="#B3B3B3" transform="translate(707,542)"/>
<path d="M0 0 C0.33 0 0.66 0 1 0 C1 15.18 1 30.36 1 46 C-3.76047883 46.6800684 -7.72703905 47.11542653 -12.4375 47.0625 C-13.48808594 47.05347656 -14.53867187 47.04445313 -15.62109375 47.03515625 C-16.40613281 47.02355469 -17.19117188 47.01195312 -18 47 C-18.07420211 42.92497206 -18.1286257 38.85020608 -18.16479492 34.7746582 C-18.17987397 33.38852081 -18.2003405 32.00243106 -18.22631836 30.61645508 C-18.26273716 28.62341854 -18.27813018 26.63003277 -18.29296875 24.63671875 C-18.31653442 22.83787231 -18.31653442 22.83787231 -18.34057617 21.00268555 C-18 18 -18 18 -16.6105957 16.06176758 C-15 15 -15 15 -12.9375 15.375 C-12.298125 15.58125 -11.65875 15.7875 -11 16 C-10.34 15.67 -9.68 15.34 -9 15 C-8.67 15.99 -8.34 16.98 -8 18 C-5.69 17.01 -3.38 16.02 -1 15 C-0.67 10.05 -0.34 5.1 0 0 Z " fill="#AFAFAF" transform="translate(769,536)"/>
<path d="M0 0 C6.27 0 12.54 0 19 0 C19 0.66 19 1.32 19 2 C18.34 2 17.68 2 17 2 C17 11.24 17 20.48 17 30 C12.37277441 32.31361279 9.08576289 31.75344635 4 31 C3.34 31.33 2.68 31.66 2 32 C1.67 41.57 1.34 51.14 1 61 C0.67 61 0.34 61 0 61 C0 40.87 0 20.74 0 0 Z " fill="#B1B2B2" transform="translate(667,521)"/>
<path d="M0 0 C1.69027215 0.13915895 3.38423959 0.23192319 5.078125 0.31640625 C5.408125 -0.01359375 5.738125 -0.34359375 6.078125 -0.68359375 C8.09776699 -0.75603428 10.11979624 -0.76736563 12.140625 -0.74609375 C13.24535156 -0.73707031 14.35007812 -0.72804687 15.48828125 -0.71875 C16.34292969 -0.70714844 17.19757813 -0.69554687 18.078125 -0.68359375 C17.418125 -0.35359375 16.758125 -0.02359375 16.078125 0.31640625 C16.284375 1.26515625 16.490625 2.21390625 16.703125 3.19140625 C16.826875 4.22265625 16.950625 5.25390625 17.078125 6.31640625 C14.71859406 8.67593719 13.29916883 8.80782038 10.078125 9.31640625 C10.408125 9.97640625 10.738125 10.63640625 11.078125 11.31640625 C15.43994626 12.32564229 19.76296652 12.49928612 24.2265625 12.6328125 C24.88395416 12.6535936 25.54134583 12.67437469 26.21865845 12.69578552 C28.29671862 12.76061378 30.37489356 12.81985189 32.453125 12.87890625 C33.87110511 12.92215513 35.28907407 12.96577134 36.70703125 13.00976562 C40.1639438 13.11622543 43.62098206 13.21767609 47.078125 13.31640625 C47.078125 13.64640625 47.078125 13.97640625 47.078125 14.31640625 C40.62268352 14.46083705 34.16719465 14.60299243 27.71166992 14.74365234 C25.52090349 14.79164532 23.33014792 14.84013698 21.1394043 14.88916016 C-2.21255119 15.41105107 -2.21255119 15.41105107 -12.921875 15.31640625 C-11.931875 14.98640625 -10.941875 14.65640625 -9.921875 14.31640625 C-11.04721605 12.96022126 -11.04721605 12.96022126 -13.984375 13.25390625 C-14.95375 13.27453125 -15.923125 13.29515625 -16.921875 13.31640625 C-16.40803713 11.00413584 -15.76966876 8.94932062 -14.859375 6.75390625 C-13.74238546 4.28499558 -13.74238546 4.28499558 -13.921875 1.31640625 C-14.911875 0.98640625 -15.901875 0.65640625 -16.921875 0.31640625 C-11.11491645 -0.70923838 -5.89191772 -0.52847354 0 0 Z M4.078125 1.31640625 C4.078125 2.63640625 4.078125 3.95640625 4.078125 5.31640625 C4.408125 3.99640625 4.738125 2.67640625 5.078125 1.31640625 C4.748125 1.31640625 4.418125 1.31640625 4.078125 1.31640625 Z " fill="#B3B3B3" transform="translate(478.921875,192.68359375)"/>
<path d="M0 0 C2.32337925 2.90750448 3.97926947 5.80224042 5.55859375 9.16796875 C6.26145508 10.63073242 6.26145508 10.63073242 6.97851562 12.12304688 C7.95500532 14.17406739 8.92370829 16.22881249 9.88476562 18.28710938 C10.35462891 19.25841797 10.82449219 20.22972656 11.30859375 21.23046875 C11.72939209 22.12145264 12.15019043 23.01243652 12.58374023 23.93041992 C13.82523331 26.17340894 13.82523331 26.17340894 16.16821289 26.7980957 C16.77270264 26.86472412 17.37719238 26.93135254 18 27 C17.34 27.66 16.68 28.32 16 29 C16.33 29.66 16.66 30.32 17 31 C18.98 31 20.96 31 23 31 C23 30.34 23 29.68 23 29 C23.99 29 24.98 29 26 29 C26.33 28.34 26.66 27.68 27 27 C27.66 27 28.32 27 29 27 C28.34 25.68 27.68 24.36 27 23 C25.68 23.33 24.36 23.66 23 24 C22.505 21.525 22.505 21.525 22 19 C22.66 19 23.32 19 24 19 C23.2265625 17.6078125 23.2265625 17.6078125 22.4375 16.1875 C21 13 21 13 22 10 C22.3717334 10.648479 22.7434668 11.29695801 23.12646484 11.96508789 C30.3748566 24.57997 37.68968622 37.05153042 46 49 C45.505 49.99 45.505 49.99 45 51 C43.35 49.35 41.7 47.7 40 46 C39.67 46.33 39.34 46.66 39 47 C37.67151309 48.00642948 36.33849671 49.00692179 35 50 C32.69 48.68 30.38 47.36 28 46 C28.45699278 51.02692063 30.99241748 54.14896261 34 58 C33.505 58.99 33.505 58.99 33 60 C27.58950117 52.80553194 22.68448401 45.4840501 18.1875 37.6875 C17.59437012 36.66438721 17.00124023 35.64127441 16.39013672 34.5871582 C12.26342401 27.38944201 8.35631691 20.09759748 4.625 12.6875 C3.91960083 11.29180786 3.91960083 11.29180786 3.19995117 9.86791992 C2.77560791 9.00787354 2.35126465 8.14782715 1.9140625 7.26171875 C1.5423291 6.50850342 1.1705957 5.75528809 0.78759766 4.97924805 C0 3 0 3 0 0 Z " fill="#BBBBBC" transform="translate(224,646)"/>
<path d="M0 0 C4.32839097 2.20502936 7.19363633 4.43096248 9 9 C9 13.50915387 8.4981922 15.41238868 5.5625 18.875 C1.95302096 21.86822652 -0.23019325 22.34530607 -4.96484375 22.28515625 C-8.19035622 21.83321304 -9.80900197 20.31988026 -12 18 C-14.29623133 14.93835823 -14.41281445 11.75154552 -14.328125 7.96875 C-13.80947233 4.85683396 -12.21445226 3.14932131 -10 1 C-6.78314421 -0.60842789 -3.4888991 -0.46778535 0 0 Z " fill="#B5B5B5" transform="translate(730,486)"/>
<path d="M0 0 C0 2 0 4 0 6 C2.97 6.495 2.97 6.495 6 7 C6.33 14.92 6.66 22.84 7 31 C6.34 31 5.68 31 5 31 C4.62875 32.3921875 4.62875 32.3921875 4.25 33.8125 C2.93545755 37.16458325 2.02036616 38.1877803 -1 40 C-3 36.25 -3 36.25 -3 34 C-3.639375 33.71125 -4.27875 33.4225 -4.9375 33.125 C-7 32 -7 32 -8 30 C-8.07194869 27.11629667 -8.09291708 24.25760336 -8.0625 21.375 C-8.05798828 20.57320313 -8.05347656 19.77140625 -8.04882812 18.9453125 C-8.03703168 16.96350994 -8.01909605 14.98174567 -8 13 C-7.67 13 -7.34 13 -7 13 C-6.96261719 12.31292969 -6.92523438 11.62585938 -6.88671875 10.91796875 C-6.82097656 10.01691406 -6.75523437 9.11585938 -6.6875 8.1875 C-6.62949219 7.29417969 -6.57148438 6.40085937 -6.51171875 5.48046875 C-5.65647217 1.33480784 -4.22438558 0 0 0 Z M-7 28 C-6 30 -6 30 -6 30 Z " fill="#B2B2B3" transform="translate(261,461)"/>
<path d="M0 0 C15.95943013 15.3131856 26.56941376 37.2477485 36 57 C36.41894531 57.73992187 36.83789062 58.47984375 37.26953125 59.2421875 C38 61 38 61 37 64 C34.36 58.72 31.72 53.44 29 48 C28.34 49.32 27.68 50.64 27 52 C28.32 52.33 29.64 52.66 31 53 C31 53.33 31 53.66 31 54 C29.35 54 27.7 54 26 54 C26.33 54.66 26.66 55.32 27 56 C27.66 56 28.32 56 29 56 C28.67 57.32 28.34 58.64 28 60 C26.35 60 24.7 60 23 60 C23.55105909 63.9492568 24.38935371 67.34920174 26 71 C25.34 71 24.68 71 24 71 C23.52373169 70.03960815 23.52373169 70.03960815 23.0378418 69.05981445 C21.58985635 66.14298075 20.13871019 63.22773055 18.6875 60.3125 C17.93823242 58.80139648 17.93823242 58.80139648 17.17382812 57.25976562 C16.44389648 55.79506836 16.44389648 55.79506836 15.69921875 54.30078125 C15.25408936 53.40528564 14.80895996 52.50979004 14.3503418 51.5871582 C13.01435073 48.93505678 13.01435073 48.93505678 11.26879883 46.29370117 C10.85009521 45.53677979 10.4313916 44.7798584 10 44 C10.33 43.34 10.66 42.68 11 42 C12.5 43.375 12.5 43.375 14 45 C14 45.66 14 46.32 14 47 C15.98 47.33 17.96 47.66 20 48 C20.12375 47.401875 20.2475 46.80375 20.375 46.1875 C21 44 21 44 23 41 C22.92047244 35.06194208 19.70535651 30.79783027 16.5625 26 C16.02915039 25.16927979 15.49580078 24.33855957 14.94628906 23.48266602 C11.12865674 17.58685965 7.14429388 11.82187567 2.94750977 6.18945312 C0 2.20017736 0 2.20017736 0 0 Z " fill="#BBBCBC" transform="translate(760,315)"/>
<path d="M0 0 C0.66 0 1.32 0 2 0 C2.12375 0.763125 2.2475 1.52625 2.375 2.3125 C2.88102792 5.20267136 2.88102792 5.20267136 5 8 C5.22705078 10.26831055 5.22705078 10.26831055 5.1953125 12.88671875 C5.18564453 14.2934082 5.18564453 14.2934082 5.17578125 15.72851562 C5.15902344 16.70498047 5.14226562 17.68144531 5.125 18.6875 C5.11597656 19.67556641 5.10695313 20.66363281 5.09765625 21.68164062 C5.0740843 24.12133765 5.04118022 26.56054697 5 29 C2.33333333 29 -0.33333333 29 -3 29 C-3.28875 29.639375 -3.5775 30.27875 -3.875 30.9375 C-5 33 -5 33 -7 34 C-7.02505615 33.40985107 -7.0501123 32.81970215 -7.07592773 32.21166992 C-7.19200052 29.53673186 -7.31467572 26.8621362 -7.4375 24.1875 C-7.47681641 23.25873047 -7.51613281 22.32996094 -7.55664062 21.37304688 C-7.59853516 20.48037109 -7.64042969 19.58769531 -7.68359375 18.66796875 C-7.72025146 17.84578857 -7.75690918 17.0236084 -7.79467773 16.17651367 C-7.93427772 13.82094822 -7.93427772 13.82094822 -9 11 C-7.22147819 6.25727518 -5.43127999 4.33225263 -1 2 C-0.67 1.34 -0.34 0.68 0 0 Z " fill="#B2B2B2" transform="translate(262,517)"/>
<path d="M0 0 C6.6 0 13.2 0 20 0 C20 17.49 20 34.98 20 53 C19.67 53 19.34 53 19 53 C18.98018066 51.73816895 18.96036133 50.47633789 18.93994141 49.17626953 C18.86401235 44.50581508 18.77527588 39.8356774 18.68261719 35.16552734 C18.64427479 33.14215334 18.60943129 31.11870994 18.578125 29.09521484 C18.53258831 26.19082797 18.47457591 23.28692106 18.4140625 20.3828125 C18.40251129 19.47443634 18.39096008 18.56606018 18.37905884 17.63015747 C18.35918915 16.78943695 18.33931946 15.94871643 18.31884766 15.08251953 C18.30552399 14.34083527 18.29220032 13.599151 18.2784729 12.83499146 C18.14800271 10.7526636 18.14800271 10.7526636 16 9 C11.5994629 8.38881429 8.77479651 9.81900646 5 12 C2.37822272 14.62177728 2.72948719 15.80213582 2.68115234 19.45947266 C2.66128265 20.60050446 2.64141296 21.74153625 2.62094116 22.91714478 C2.60938995 24.15362762 2.59783875 25.39011047 2.5859375 26.6640625 C2.56657135 27.92640717 2.5472052 29.18875183 2.5272522 30.48934937 C2.47750955 33.84634212 2.43627428 37.20322315 2.39910889 40.56036377 C2.35911153 43.98565664 2.30799981 47.41078146 2.2578125 50.8359375 C2.1615994 57.55718381 2.07659418 64.27850305 2 71 C1.67 71 1.34 71 1 71 C0.67 47.57 0.34 24.14 0 0 Z " fill="#C5C5C5" transform="translate(749,512)"/>
<path d="M0 0 C3.39082252 2.11926407 3.88319436 3.59848062 5 7.4375 C5 11 5 11 3.1875 13.875 C0.18227143 16.79436489 -0.57476464 16.96570683 -4.875 17.3125 C-7.78484862 17.24901239 -8.90783838 17.05299293 -11.5 15.5625 C-13.7380068 11.73923839 -13.75280262 8.31870978 -13 4 C-10.14710704 -1.0855918 -5.26772931 -0.93928262 0 0 Z " fill="#B8B8B9" transform="translate(641,339)"/>
<path d="M0 0 C1.65 0.33 3.3 0.66 5 1 C5 7.6 5 14.2 5 21 C3.68 20.67 2.36 20.34 1 20 C-0.25 17.4375 -0.25 17.4375 -1 15 C-1.33 15 -1.66 15 -2 15 C-2.144375 15.928125 -2.28875 16.85625 -2.4375 17.8125 C-3 21 -3 21 -4 24 C-5.98 24 -7.96 24 -10 24 C-10 18.72 -10 13.44 -10 8 C-9.01 7.67 -8.02 7.34 -7 7 C-6.505 6.175 -6.01 5.35 -5.5 4.5 C-4 2 -4 2 -1 1 C-0.67 0.67 -0.34 0.34 0 0 Z " fill="#B2B2B2" transform="translate(679,556)"/>
<path d="M0 0 C0.66 0 1.32 0 2 0 C2 0.66 2 1.32 2 2 C3.32 1.34 4.64 0.68 6 0 C6.12375 0.804375 6.2475 1.60875 6.375 2.4375 C6.58125 3.283125 6.7875 4.12875 7 5 C7.66 5.33 8.32 5.66 9 6 C11.52026211 17.43628374 10.09167898 30.37228458 10 42 C9.67 42 9.34 42 9 42 C8.14268873 35.83312228 7.71315753 29.71811088 7.4375 23.5 C7.37272461 22.12328125 7.37272461 22.12328125 7.30664062 20.71875 C7.20166544 18.47927939 7.09950752 16.23971908 7 14 C6.21625 14.165 5.4325 14.33 4.625 14.5 C2 15 2 15 0 15 C-0.103125 15.639375 -0.20625 16.27875 -0.3125 16.9375 C-0.539375 17.618125 -0.76625 18.29875 -1 19 C-1.99 19.33 -2.98 19.66 -4 20 C-4.33 29.57 -4.66 39.14 -5 49 C-5.33 49 -5.66 49 -6 49 C-6.66069572 33.99201547 -7.16290365 19.02333687 -7 4 C-6.67 4 -6.34 4 -6 4 C-6 6.31 -6 8.62 -6 11 C-5.01 10.67 -4.02 10.34 -3 10 C-3 10.66 -3 11.32 -3 12 C-2.34 12 -1.68 12 -1 12 C-1 12.66 -1 13.32 -1 14 C-0.34 13.34 0.32 12.68 1 12 C0.83492354 9.42459787 0.83492354 9.42459787 0 7 C-0.66 6.67 -1.32 6.34 -2 6 C-1.01 5.01 -0.02 4.02 1 3 C0.67 2.01 0.34 1.02 0 0 Z " fill="#BFC0C0" transform="translate(817,481)"/>
<path d="M0 0 C0.33 0 0.66 0 1 0 C1 13.53 1 27.06 1 41 C-1.48724903 37.68366796 -3.23109915 34.70626844 -5 31 C-6.65 31.66 -8.3 32.32 -10 33 C-10.33 32.67 -10.66 32.34 -11 32 C-13.16666667 32.83333333 -13.16666667 32.83333333 -14 35 C-15 34 -15 34 -15.11352539 31.59155273 C-15.10828857 30.54942627 -15.10305176 29.5072998 -15.09765625 28.43359375 C-15.09443359 27.30888672 -15.09121094 26.18417969 -15.08789062 25.02539062 C-15.07951172 23.84138672 -15.07113281 22.65738281 -15.0625 21.4375 C-15.05798828 20.24962891 -15.05347656 19.06175781 -15.04882812 17.83789062 C-15.03699675 14.89187774 -15.02051287 11.94596319 -15 9 C-14.67 9 -14.34 9 -14 9 C-13.93941406 9.91523438 -13.87882813 10.83046875 -13.81640625 11.7734375 C-13.73261719 12.96195312 -13.64882812 14.15046875 -13.5625 15.375 C-13.48128906 16.55835938 -13.40007812 17.74171875 -13.31640625 18.9609375 C-13.18915064 21.91518901 -13.18915064 21.91518901 -12 24 C-10.68 23.67 -9.36 23.34 -8 23 C-8 23.66 -8 24.32 -8 25 C-7.34 24.01 -6.68 23.02 -6 22 C-6.33 21.34 -6.66 20.68 -7 20 C-6.34 20 -5.68 20 -5 20 C-4.67 19.01 -4.34 18.02 -4 17 C-3.01 17.33 -2.02 17.66 -1 18 C-0.505 9.09 -0.505 9.09 0 0 Z M-5 34 C-4.01 34.495 -4.01 34.495 -3 35 C-3.99 36.485 -3.99 36.485 -5 38 C-5 36.68 -5 35.36 -5 34 Z " fill="#C1C1C1" transform="translate(211,491)"/>
<path d="M0 0 C5.61 0 11.22 0 17 0 C17 10.23 17 20.46 17 31 C16.67 31 16.34 31 16 31 C16 29.02 16 27.04 16 25 C15.01 25.66 14.02 26.32 13 27 C12.01 27 11.02 27 10 27 C9.67 26.01 9.34 25.02 9 24 C10.65 23.67 12.3 23.34 14 23 C14.33 22.01 14.66 21.02 15 20 C12.525 19.01 12.525 19.01 10 18 C9.855625 16.906875 9.71125 15.81375 9.5625 14.6875 C9.11711896 11.06877013 9.11711896 11.06877013 8 8 C7.34 8 6.68 8 6 8 C3.70351351 5.4385343 3 4.52032428 3 1 C2.01 0.67 1.02 0.34 0 0 Z M10 9 C10.33 9.66 10.66 10.32 11 11 C11.66 10.34 12.32 9.68 13 9 C12.01 9 11.02 9 10 9 Z M6 18 C7.32 18 8.64 18 10 18 C9.67 18.66 9.34 19.32 9 20 C8.01 19.34 7.02 18.68 6 18 Z " fill="#B0B0B0" transform="translate(709,544)"/>
<path d="M0 0 C4.29 0 8.58 0 13 0 C13.33 1.65 13.66 3.3 14 5 C15.175625 4.690625 15.175625 4.690625 16.375 4.375 C17.674375 4.189375 17.674375 4.189375 19 4 C19.66 4.66 20.32 5.32 21 6 C20.01 6.33 19.02 6.66 18 7 C18 7.66 18 8.32 18 9 C18.66 9 19.32 9 20 9 C20 10.32 20 11.64 20 13 C23.27891925 14.63945963 26.90613534 14.12030178 30.5078125 14.09765625 C31.34843231 14.0962413 32.18905212 14.09482635 33.05514526 14.09336853 C35.74513275 14.08776237 38.43503759 14.07520886 41.125 14.0625 C42.94661338 14.05748579 44.76822807 14.05292275 46.58984375 14.04882812 C51.05992777 14.03779094 55.52994986 14.0205222 60 14 C60 14.33 60 14.66 60 15 C52.88952844 15.8497148 45.89194671 16.14760422 38.734375 16.1328125 C37.17882904 16.13424759 37.17882904 16.13424759 35.59185791 16.13571167 C33.41703225 16.1363876 31.24220451 16.13457458 29.06738281 16.13037109 C25.74539675 16.12499255 22.42354454 16.13034729 19.1015625 16.13671875 C16.97916637 16.13605829 14.85677032 16.1347778 12.734375 16.1328125 C11.25297028 16.13584885 11.25297028 16.13584885 9.74163818 16.13894653 C5.04719769 16.12300538 0.61670082 15.97463684 -4 15 C-4 14.67 -4 14.34 -4 14 C-3.39671875 13.96261719 -2.7934375 13.92523437 -2.171875 13.88671875 C2.49359002 13.50294663 5.39215091 13.19155881 9 10 C9.99 10 10.98 10 12 10 C11.34 8.02 10.68 6.04 10 4 C10.33 3.67 10.66 3.34 11 3 C8.70370006 1.85185003 6.92301914 1.69230191 4.375 1.4375 C3.55773437 1.35371094 2.74046875 1.26992188 1.8984375 1.18359375 C1.27195312 1.12300781 0.64546875 1.06242188 0 1 C0 0.67 0 0.34 0 0 Z " fill="#C1C2C2" transform="translate(485,821)"/>
<path d="M0 0 C0.33 0 0.66 0 1 0 C1.49230769 7.38461538 1.49230769 7.38461538 -1 10.5 C-1.66 10.995 -2.32 11.49 -3 12 C-2.01 12.66 -1.02 13.32 0 14 C0.66 13.34 1.32 12.68 2 12 C2 12.99 2 13.98 2 15 C3.98 13.68 5.96 12.36 8 11 C6.49235345 15.22141034 3.78707131 16.80349864 0 19 C-3.56409399 20.22466666 -7.00762118 20.09992379 -10.75 20.0625 C-11.92046875 20.05347656 -13.0909375 20.04445313 -14.296875 20.03515625 C-15.18890625 20.02355469 -16.0809375 20.01195312 -17 20 C-17 19.67 -17 19.34 -17 19 C-13.7 19 -10.4 19 -7 19 C-7 18.34 -7 17.68 -7 17 C-8.670625 17.061875 -8.670625 17.061875 -10.375 17.125 C-14 17 -14 17 -16 15 C-15.67 14.01 -15.34 13.02 -15 12 C-14.34 12.33 -13.68 12.66 -13 13 C-12.67 12.01 -12.34 11.02 -12 10 C-13.11375 9.896875 -14.2275 9.79375 -15.375 9.6875 C-17.169375 9.3471875 -17.169375 9.3471875 -19 9 C-19.66 8.01 -20.32 7.02 -21 6 C-20.04738281 6.03480469 -19.09476563 6.06960938 -18.11328125 6.10546875 C-16.85902344 6.13253906 -15.60476563 6.15960938 -14.3125 6.1875 C-13.07113281 6.22230469 -11.82976563 6.25710938 -10.55078125 6.29296875 C-6.7542292 5.97972188 -4.98532629 5.30757653 -2 3 C-1.34 2.01 -0.68 1.02 0 0 Z " fill="#B8B8B8" transform="translate(693,399)"/>
<path d="M0 0 C3.96 0 7.92 0 12 0 C11.01 0.495 11.01 0.495 10 1 C10.20625 1.94875 10.4125 2.8975 10.625 3.875 C10.74875 4.90625 10.8725 5.9375 11 7 C8.64046906 9.35953094 7.22104383 9.49141413 4 10 C4.33 10.66 4.66 11.32 5 12 C9.36182126 13.00923604 13.68484152 13.18287987 18.1484375 13.31640625 C19.13452499 13.3475779 19.13452499 13.3475779 20.14053345 13.37937927 C22.21859362 13.44420753 24.29676856 13.50344564 26.375 13.5625 C27.79298011 13.60574888 29.21094907 13.64936509 30.62890625 13.69335938 C34.0858188 13.79981918 37.54285706 13.90126984 41 14 C41 14.33 41 14.66 41 15 C25.49 15.33 9.98 15.66 -6 16 C-6 12 -6 12 -5 10 C-4.64830932 8.67139075 -4.31229724 7.33841672 -4 6 C-3.01 6 -2.02 6 -1 6 C-0.67 4.02 -0.34 2.04 0 0 Z M-3 11 C-3.33 11.66 -3.66 12.32 -4 13 C-3.01 13 -2.02 13 -1 13 C-1 12.34 -1 11.68 -1 11 C-1.66 11 -2.32 11 -3 11 Z " fill="#AAAAAB" transform="translate(485,192)"/>
<path d="M0 0 C-0.66 0 -1.32 0 -2 0 C-2 1.98 -2 3.96 -2 6 C-2.66 6 -3.32 6 -4 6 C-4.33 7.32 -4.66 8.64 -5 10 C-4.34 10 -3.68 10 -3 10 C-3 9.01 -3 8.02 -3 7 C-2.34 7.33 -1.68 7.66 -1 8 C-1 8.99 -1 9.98 -1 11 C-8.92 11.495 -8.92 11.495 -17 12 C-17 12.66 -17 13.32 -17 14 C-19.31 14.66 -21.62 15.32 -24 16 C-24.66 15.34 -25.32 14.68 -26 14 C-25.236875 13.7525 -24.47375 13.505 -23.6875 13.25 C-20.7635955 11.89004442 -19.69995644 10.68414174 -18 8 C-18.33 7.34 -18.66 6.68 -19 6 C-18.34 6 -17.68 6 -17 6 C-17 5.34 -17 4.68 -17 4 C-16.195625 3.71125 -15.39125 3.4225 -14.5625 3.125 C-11.8673532 2.26737432 -11.8673532 2.26737432 -11 0 C-3.82105263 -1.27368421 -3.82105263 -1.27368421 0 0 Z " fill="#B2B2B2" transform="translate(676,292)"/>
<path d="M0 0 C6.6 0 13.2 0 20 0 C20 13.2 20 26.4 20 40 C13.4 40 6.8 40 0 40 C0 26.8 0 13.6 0 0 Z M2 2 C2 14.21 2 26.42 2 39 C7.61 39 13.22 39 19 39 C19 26.79 19 14.58 19 2 C13.39 2 7.78 2 2 2 Z " fill="#C9C9CA" transform="translate(707,542)"/>
<path d="M0 0 C0.33 0 0.66 0 1 0 C1 4.95 1 9.9 1 15 C-3.95 15 -8.9 15 -14 15 C-13.67 13.02 -13.34 11.04 -13 9 C-13.99 8.67 -14.98 8.34 -16 8 C-16.33 7.01 -16.66 6.02 -17 5 C-13.04 5 -9.08 5 -5 5 C-4.67 4.34 -4.34 3.68 -4 3 C-3.01 3 -2.02 3 -1 3 C-0.67 2.01 -0.34 1.02 0 0 Z " fill="#B1B1B2" transform="translate(769,567)"/>
<path d="M0 0 C0.33 0 0.66 0 1 0 C1.01417969 0.64066406 1.02835938 1.28132813 1.04296875 1.94140625 C1.40656881 8.53534244 2.72950643 11.96300759 7 17 C6.38125 16.67 5.7625 16.34 5.125 16 C3.08981656 14.85806765 3.08981656 14.85806765 1 15 C0.2884375 15.99 0.2884375 15.99 -0.4375 17 C-0.953125 17.66 -1.46875 18.32 -2 19 C-2.99 19 -3.98 19 -5 19 C-2.64123566 24.30721977 0.91130316 25.83639731 6 28 C3 29 3 29 1.09765625 28.1796875 C-4.23120658 24.76348753 -8.74551154 21.14860489 -11 15 C-10.67 14.01 -10.34 13.02 -10 12 C-9.34 11.67 -8.68 11.34 -8 11 C-8 10.34 -8 9.68 -8 9 C-6.35 8.34 -4.7 7.68 -3 7 C-3.33 6.01 -3.66 5.02 -4 4 C-3.01 4.33 -2.02 4.66 -1 5 C-0.67 3.35 -0.34 1.7 0 0 Z " fill="#BCBCBC" transform="translate(579,376)"/>
<path d="M0 0 C0.80824219 0.10183594 1.61648438 0.20367187 2.44921875 0.30859375 C3.06410156 0.39238281 3.67898438 0.47617188 4.3125 0.5625 C4.6425 1.5525 4.9725 2.5425 5.3125 3.5625 C4.3225 4.0575 4.3225 4.0575 3.3125 4.5625 C2.6525 4.2325 1.9925 3.9025 1.3125 3.5625 C1.3125 4.5525 1.3125 5.5425 1.3125 6.5625 C-5.3125 10.4375 -5.3125 10.4375 -8.6875 11.5625 C-8.6875 12.2225 -8.6875 12.8825 -8.6875 13.5625 C-15.1225 14.0575 -15.1225 14.0575 -21.6875 14.5625 C-21.6875 14.2325 -21.6875 13.9025 -21.6875 13.5625 C-20.945 13.541875 -20.2025 13.52125 -19.4375 13.5 C-15.88297188 12.28822905 -15.35576021 10.46152043 -13.734375 7.21875 C-12.21038718 4.80766478 -10.38300046 4.23637512 -7.6875 3.5625 C-7.6875 2.5725 -7.6875 1.5825 -7.6875 0.5625 C-4.59271121 -0.46909626 -3.16118607 -0.41232862 0 0 Z " fill="#B2B2B2" transform="translate(567.6875,194.4375)"/>
<path d="M0 0 C2.64 0 5.28 0 8 0 C8 4.95 8 9.9 8 15 C-3.625 15.25 -3.625 15.25 -7 13 C-5.68 12.01 -4.36 11.02 -3 10 C-3.66 9.34 -4.32 8.68 -5 8 C-4.236875 7.71125 -3.47375 7.4225 -2.6875 7.125 C0.15029308 6.03730987 0.15029308 6.03730987 3 4 C2.01 2.68 1.02 1.36 0 0 Z " fill="#B9B9B9" transform="translate(275,567)"/>
<path d="M0 0 C0.99 0.66 1.98 1.32 3 2 C1.02 2.33 -0.96 2.66 -3 3 C-2.67 3.66 -2.34 4.32 -2 5 C-2.99 5.33 -3.98 5.66 -5 6 C-5.99 5.01 -6.98 4.02 -8 3 C-7.01 2.67 -6.02 2.34 -5 2 C-7.31 2 -9.62 2 -12 2 C-11.67 4.97 -11.34 7.94 -11 11 C-12.98 11.66 -14.96 12.32 -17 13 C-18.66666667 11.33333333 -20.33333333 9.66666667 -22 8 C-23.32 9.32 -24.64 10.64 -26 12 C-26 9 -26 9 -24 6.5625 C-16.54178142 0.1919383 -9.83068423 -1.15655109 0 0 Z " fill="#B3B3B4" transform="translate(595,272)"/>
<path d="M0 0 C1.33333333 0.33333333 2.66666667 0.66666667 4 1 C4.33 0.67 4.66 0.34 5 0 C6.66617115 -0.04063832 8.33388095 -0.042721 10 0 C10.12375 0.969375 10.2475 1.93875 10.375 2.9375 C10.58125 3.948125 10.7875 4.95875 11 6 C13.62723396 7.31361698 15.72610561 7.21253909 18.6640625 7.31640625 C20.34628906 7.37924805 20.34628906 7.37924805 22.0625 7.44335938 C23.238125 7.48267578 24.41375 7.52199219 25.625 7.5625 C26.80835938 7.60568359 27.99171875 7.64886719 29.2109375 7.69335938 C32.14050328 7.79967426 35.07015588 7.90170642 38 8 C38 6.35 38 4.7 38 3 C38.33 3 38.66 3 39 3 C39 4.98 39 6.96 39 9 C23.82 9 8.64 9 -7 9 C-7 7.35 -7 5.7 -7 4 C-6.01 5.485 -6.01 5.485 -5 7 C-1.91634129 7.2502157 -1.91634129 7.2502157 1 7 C0.34 5.02 -0.32 3.04 -1 1 C-0.67 0.67 -0.34 0.34 0 0 Z " fill="#E5E5E5" transform="translate(498,455)"/>
<path d="M0 0 C-3.22791555 2.1519437 -4.28400809 2.20086443 -8 2 C-7.34 3.32 -6.68 4.64 -6 6 C-5.01 6 -4.02 6 -3 6 C-2.67 6.66 -2.34 7.32 -2 8 C-1.34 8.33 -0.68 8.66 0 9 C-0.33 9.66 -0.66 10.32 -1 11 C0.65 11 2.3 11 4 11 C-0.52099819 14.01399879 -3.86032065 14.12108347 -9.25 14.0625 C-10.32765625 14.05347656 -11.4053125 14.04445313 -12.515625 14.03515625 C-13.33546875 14.02355469 -14.1553125 14.01195312 -15 14 C-13 12 -11 10 -9 8 C-10.65 7.01 -12.3 6.02 -14 5 C-12.68 4.67 -11.36 4.34 -10 4 C-12.31 3.34 -14.62 2.68 -17 2 C-17 1.67 -17 1.34 -17 1 C-15.10440036 0.83069605 -13.20850769 0.66467136 -11.3125 0.5 C-10.25675781 0.4071875 -9.20101562 0.314375 -8.11328125 0.21875 C-5.39363975 0.0276585 -2.72460144 -0.04043935 0 0 Z M-6 3 C-5.67 3.66 -5.34 4.32 -5 5 C-5.66 4.67 -6.32 4.34 -7 4 C-6.67 3.67 -6.34 3.34 -6 3 Z " fill="#BEBEBF" transform="translate(606,393)"/>
<path d="M0 0 C2 1 4 2 6 3 C6 3.99 6 4.98 6 6 C6.66 5.67 7.32 5.34 8 5 C9.67654729 5.27942455 11.34608154 5.60828247 13 6 C14 9 14 9 13.25 11.75 C12.92786225 15.93779069 14.22358861 17.43351844 16.67578125 20.6796875 C17.92438882 22.23535385 17.92438882 22.23535385 20 22 C20 22.66 20 23.32 20 24 C20.99 23.67 21.98 23.34 23 23 C23.66 23.99 24.32 24.98 25 26 C24.34 26.66 23.68 27.32 23 28 C23.33 28.99 23.66 29.98 24 31 C23.67 31.66 23.34 32.32 23 33 C22.26136719 31.93523437 21.52273438 30.87046875 20.76171875 29.7734375 C15.16642803 21.75457278 9.49324745 13.86647368 3.3034668 6.29248047 C0 2.20457023 0 2.20457023 0 0 Z " fill="#BEBEBF" transform="translate(738,311)"/>
<path d="M0 0 C0.66 0.33 1.32 0.66 2 1 C1.484375 1.4125 0.96875 1.825 0.4375 2.25 C-0.036875 2.8275 -0.51125 3.405 -1 4 C-0.77242269 6.16299211 -0.77242269 6.16299211 0 8 C-0.94875 8.2475 -1.8975 8.495 -2.875 8.75 C-6.08693191 9.6857077 -6.08693191 9.6857077 -7.375 12.125 C-7.684375 13.053125 -7.684375 13.053125 -8 14 C-10 13 -10 13 -11 11 C-11.33 12.65 -11.66 14.3 -12 16 C-13.43344 16.53190541 -14.87195367 17.05015258 -16.3125 17.5625 C-17.51326172 17.99755859 -17.51326172 17.99755859 -18.73828125 18.44140625 C-21 19 -21 19 -24 18 C-22.53240234 16.93072266 -22.53240234 16.93072266 -21.03515625 15.83984375 C-13.94182775 10.66123436 -6.87928333 5.46241197 0 0 Z " fill="#BCBDBD" transform="translate(693,758)"/>
<path d="M0 0 C5.12110215 1.28027554 6.80517446 2.93385841 10 7 C13.36617133 9.64662119 16.04568653 11.06940462 20.4375 10.75 C21.283125 10.5025 22.12875 10.255 23 10 C23.66 11.65 24.32 13.3 25 15 C24.34 15 23.68 15 23 15 C26.7432252 19.02951393 30.64721125 21.92492169 35.3125 24.8125 C35.95767578 25.21919922 36.60285156 25.62589844 37.26757812 26.04492188 C38.84136655 27.0358257 40.42017212 28.01875372 42 29 C41.01 29.495 41.01 29.495 40 30 C37.47120086 28.64256258 35.09758593 27.23458817 32.6875 25.6875 C31.97053955 25.2325415 31.2535791 24.77758301 30.51489258 24.30883789 C23.69170576 19.91510192 17.31675496 15.09207798 11 10 C10.46375 9.57203125 9.9275 9.1440625 9.375 8.703125 C2.70747818 3.3819297 2.70747818 3.3819297 0 1 C0 0.67 0 0.34 0 0 Z " fill="#BFBFC0" transform="translate(310,763)"/>
<path d="M0 0 C0.33 0 0.66 0 1 0 C1.06058594 0.62648438 1.12117187 1.25296875 1.18359375 1.8984375 C1.26738281 2.71570313 1.35117188 3.53296875 1.4375 4.375 C1.51871094 5.18710937 1.59992188 5.99921875 1.68359375 6.8359375 C1.89090114 9.04272805 1.89090114 9.04272805 3 11 C6.57535019 12.0761054 6.57535019 12.0761054 10 11 C10.99 11.33 11.98 11.66 13 12 C12.67 13.65 12.34 15.3 12 17 C11.34 16.67 10.68 16.34 10 16 C10 17.32 10 18.64 10 20 C3.49959631 20.36794738 3.49959631 20.36794738 1.2878418 18.73901367 C-0.27556408 16.62789707 -0.35164149 15.58943959 -0.29296875 12.98828125 C-0.28330078 12.23095703 -0.27363281 11.47363281 -0.26367188 10.69335938 C-0.23853516 9.90767578 -0.21339844 9.12199219 -0.1875 8.3125 C-0.17396484 7.51521484 -0.16042969 6.71792969 -0.14648438 5.89648438 C-0.11117089 3.93070033 -0.05736447 1.96526418 0 0 Z M1 15 C2 17 2 17 2 17 Z " fill="#ABACAC" transform="translate(253,474)"/>
<path d="M0 0 C2.64 0 5.28 0 8 0 C8 0.33 8 0.66 8 1 C6.35 1 4.7 1 3 1 C4.21044132 5.60742865 4.21044132 5.60742865 6 10 C5.01 10.495 5.01 10.495 4 11 C4 11.66 4 12.32 4 13 C4.99 13.33 5.98 13.66 7 14 C2.14246955 15.29534145 -3.0084132 15.49915868 -8 15 C-8.99 14.34 -9.98 13.68 -11 13 C-9.58398286 12.51891725 -8.16715563 12.04021859 -6.75 11.5625 C-5.96109375 11.29566406 -5.1721875 11.02882813 -4.359375 10.75390625 C-2.25178012 10.08045292 -0.15246027 9.50849405 2 9 C1.34 8.34 0.68 7.68 0 7 C-0.66 7 -1.32 7 -2 7 C-1.125 2.25 -1.125 2.25 0 0 Z " fill="#BCBCBC" transform="translate(476,820)"/>
<path d="M0 0 C0.66 0 1.32 0 2 0 C2.66 1.65 3.32 3.3 4 5 C3.01 5.66 2.02 6.32 1 7 C0.67 6.01 0.34 5.02 0 4 C-0.99 4.33 -1.98 4.66 -3 5 C-2.814375 5.5775 -2.62875 6.155 -2.4375 6.75 C-1.93789781 9.31938268 -1.98914072 10.58948942 -3 13 C-5.0625 14.75 -5.0625 14.75 -7 16 C-9.2477975 13.94766315 -10.0022242 12.99332739 -11 10 C-10.34 9.34 -9.68 8.68 -9 8 C-8.28591666 6.01643517 -7.61382258 4.01684563 -7 2 C-3.535 1.505 -3.535 1.505 0 1 C0 0.67 0 0.34 0 0 Z " fill="#B2B2B2" transform="translate(745,721)"/>
<path d="M0 0 C0.66 0.33 1.32 0.66 2 1 C0.35 2.32 -1.3 3.64 -3 5 C-2.34 5.99 -1.68 6.98 -1 8 C-2.32 9.65 -3.64 11.3 -5 13 C-5 12.01 -5 11.02 -5 10 C-5.66 10 -6.32 10 -7 10 C-6.67 8.68 -6.34 7.36 -6 6 C-7.95893905 6.64399373 -9.91713364 7.29025241 -11.875 7.9375 C-12.96554687 8.29714844 -14.05609375 8.65679688 -15.1796875 9.02734375 C-17.90758682 9.89914074 -17.90758682 9.89914074 -20 11 C-21.52388763 11.01605041 -23.04880674 10.9655743 -24.5703125 10.87890625 C-25.91416016 10.80639648 -25.91416016 10.80639648 -27.28515625 10.73242188 C-28.22230469 10.67634766 -29.15945313 10.62027344 -30.125 10.5625 C-31.06988281 10.51029297 -32.01476562 10.45808594 -32.98828125 10.40429688 C-35.3258419 10.27443239 -37.66299545 10.1394613 -40 10 C-40 9.67 -40 9.34 -40 9 C-39.39639648 8.96036133 -38.79279297 8.92072266 -38.17089844 8.87988281 C-25.42300239 8.0002148 -13.89194812 7.13701348 -2.375 1.1875 C-1.59125 0.795625 -0.8075 0.40375 0 0 Z " fill="#E3E3E3" transform="translate(471,576)"/>
<path d="M0 0 C2.31 0.33 4.62 0.66 7 1 C6.47731534 3.76276177 5.89130413 6.3260876 5 9 C5.66 9.33 6.32 9.66 7 10 C6.67 10.99 6.34 11.98 6 13 C4.35 12.67 2.7 12.34 1 12 C0.67 11.01 0.34 10.02 0 9 C-2.97 8.505 -2.97 8.505 -6 8 C-6 6.35 -6 4.7 -6 3 C-4.02 2.34 -2.04 1.68 0 1 C0 0.67 0 0.34 0 0 Z M-4 4 C-4.33 4.66 -4.66 5.32 -5 6 C-4.34 6 -3.68 6 -3 6 C-3.33 5.34 -3.66 4.68 -4 4 Z " fill="#B0B0B1" transform="translate(604,392)"/>
<path d="M0 0 C3 1 3 1 3.8125 2.625 C4.08973477 6.13664043 3.2306889 8.71816294 2 12 C-0.125 14.4375 -0.125 14.4375 -2 16 C-4 15 -4 15 -5 12 C-4.67 11.67 -4.34 11.34 -4 11 C-5.65 11 -7.3 11 -9 11 C-8.67 10.01 -8.34 9.02 -8 8 C-7.01 7.67 -6.02 7.34 -5 7 C-5 6.34 -5 5.68 -5 5 C-4.34 4.67 -3.68 4.34 -3 4 C-3 3.34 -3 2.68 -3 2 C-2.01 1.34 -1.02 0.68 0 0 Z " fill="#B3B3B3" transform="translate(785,661)"/>
<path d="M0 0 C-0.33 1.98 -0.66 3.96 -1 6 C2.465 7.485 2.465 7.485 6 9 C5.67 8.34 5.34 7.68 5 7 C8.465 6.505 8.465 6.505 12 6 C11.34 7.98 10.68 9.96 10 12 C5.19809472 11.46805241 1.88927955 10.08984737 -2.25 7.625 C-3.28640625 7.01914062 -4.3228125 6.41328125 -5.390625 5.7890625 C-8 4 -8 4 -10 1 C-6.42181037 -1.33958553 -4.07775191 -0.9267618 0 0 Z " fill="#B9B9BA" transform="translate(660,405)"/>
<path d="M0 0 C1.98 0 3.96 0 6 0 C5.67 0.99 5.34 1.98 5 3 C5.165 3.78375 5.33 4.5675 5.5 5.375 C6.06059918 8.3181457 5.92185349 10.15761841 5 13 C4.01 13.66 3.02 14.32 2 15 C1.731875 14.360625 1.46375 13.72125 1.1875 13.0625 C0.11332248 10.66868314 0.11332248 10.66868314 -3 10 C-3 8.68 -3 7.36 -3 6 C-3.66 5.67 -4.32 5.34 -5 5 C-4.175 4.360625 -3.35 3.72125 -2.5 3.0625 C-1.675 2.381875 -0.85 1.70125 0 1 C0 0.67 0 0.34 0 0 Z " fill="#B1B0B1" transform="translate(639,298)"/>
<path d="M0 0 C3.95906817 1.43308135 7.28718181 3.33141949 10.8125 5.625 C11.78832031 6.25664063 12.76414062 6.88828125 13.76953125 7.5390625 C14.87361328 8.26222656 14.87361328 8.26222656 16 9 C10.17307692 13.78846154 10.17307692 13.78846154 7 14 C6.01 13.34 5.02 12.68 4 12 C4.33 10.02 4.66 8.04 5 6 C4.01 6 3.02 6 2 6 C2.33 5.01 2.66 4.02 3 3 C1.68 2.34 0.36 1.68 -1 1 C-0.67 0.67 -0.34 0.34 0 0 Z " fill="#BABBBB" transform="translate(341,768)"/>
<path d="M0 0 C5.18316555 1.37201441 8.06405232 4.7037012 11 9 C13.24429656 13.39855524 13.26077065 17.53345943 13.1953125 22.36328125 C13.1924826 23.15526413 13.18965271 23.94724701 13.18673706 24.76322937 C13.17558863 27.27980999 13.15049422 29.79602789 13.125 32.3125 C13.11496329 34.02408338 13.10583864 35.73567237 13.09765625 37.44726562 C13.07566681 41.63164906 13.04117408 45.81576314 13 50 C12.67 50 12.34 50 12 50 C11.98018066 49.0212793 11.96036133 48.04255859 11.93994141 47.03417969 C11.86375376 43.39606403 11.77505705 39.75834147 11.68261719 36.12060547 C11.64438171 34.54744235 11.60951934 32.97419342 11.578125 31.40087891 C11.53235578 29.13673277 11.47438239 26.87317453 11.4140625 24.609375 C11.40251129 23.90818542 11.39096008 23.20699585 11.37905884 22.48455811 C11.26704936 18.76184662 10.78067975 16.24360412 9 13 C9 11.68 9 10.36 9 9 C8.34 9.66 7.68 10.32 7 11 C6.01 11.495 6.01 11.495 5 12 C4.67 11.01 4.34 10.02 4 9 C4.99 8.34 5.98 7.68 7 7 C6.4946875 6.57847656 5.989375 6.15695312 5.46875 5.72265625 C4.8190625 5.17480469 4.169375 4.62695312 3.5 4.0625 C2.8503125 3.51722656 2.200625 2.97195313 1.53125 2.41015625 C1.0259375 1.94480469 0.520625 1.47945313 0 1 C0 0.67 0 0.34 0 0 Z M3 12 C5 13 5 13 5 13 Z " fill="#C6C7C7" transform="translate(255,508)"/>
<path d="M0 0 C0.29354834 3.05290269 0.43032367 5.95624724 0 9 C-2.59201593 11.80217939 -4.39886501 12.79962167 -8 14 C-8.33 12.35 -8.66 10.7 -9 9 C-8.34 9 -7.68 9 -7 9 C-6.67 6.69 -6.34 4.38 -6 2 C-1.125 0 -1.125 0 0 0 Z " fill="#BABBBB" transform="translate(213,534)"/>
<path d="M0 0 C2.17520782 3.26281174 2.28244319 4.2340908 2 8 C1.67 8.99 1.34 9.98 1 11 C0.34 11 -0.32 11 -1 11 C-0.34 12.65 0.32 14.3 1 16 C1.99 15.67 2.98 15.34 4 15 C2.75023244 18.65316671 2.32901247 19.78065836 -1 22 C-1 21.01 -1 20.02 -1 19 C-1.94978897 16.84971696 -1.94978897 16.84971696 -3 15 C-3.66 15 -4.32 15 -5 15 C-5 14.34 -5 13.68 -5 13 C-4.01 13 -3.02 13 -2 13 C-2 11.02 -2 9.04 -2 7 C-1.34 7 -0.68 7 0 7 C-0.66 6.34 -1.32 5.68 -2 5 C-2.99 5.66 -3.98 6.32 -5 7 C-3.70700306 4.11562221 -2.34058637 2.12780579 0 0 Z " fill="#BBBCBC" transform="translate(591,333)"/>
<path d="M0 0 C0.66 1.32 1.32 2.64 2 4 C1.01 4.495 1.01 4.495 0 5 C-0.144375 5.66 -0.28875 6.32 -0.4375 7 C-0.623125 7.66 -0.80875 8.32 -1 9 C-1.99 9.33 -2.98 9.66 -4 10 C-4.66 9.34 -5.32 8.68 -6 8 C-6.99 7.67 -7.98 7.34 -9 7 C-9 9.97 -9 12.94 -9 16 C-9.33 16 -9.66 16 -10 16 C-10.05391993 14.20866022 -10.09275571 12.41686101 -10.125 10.625 C-10.14820313 9.62726562 -10.17140625 8.62953125 -10.1953125 7.6015625 C-10 5 -10 5 -8 3 C-4.91441876 1.97147292 -3.22643349 2 0 2 C0 1.34 0 0.68 0 0 Z " fill="#ADADAE" transform="translate(206,520)"/>
<path d="M0 0 C0.66 0.33 1.32 0.66 2 1 C3.49084832 5.47254497 3.49084832 9.52745503 2 14 C1.34 14.66 0.68 15.32 0 16 C0 16.33 0 16.66 0 17 C-4.55384615 17.36923077 -4.55384615 17.36923077 -6.8125 15.5 C-7.204375 15.005 -7.59625 14.51 -8 14 C-7.67 13.34 -7.34 12.68 -7 12 C-3 11 -3 11 -1 11 C-0.67 7.37 -0.34 3.74 0 0 Z " fill="#D9D9D9" transform="translate(532,445)"/>
<path d="M0 0 C1.65 0 3.3 0 5 0 C5.33 0.99 5.66 1.98 6 3 C8.09138456 4.23950042 8.09138456 4.23950042 10.5625 5.1875 C11.38878906 5.53167969 12.21507812 5.87585938 13.06640625 6.23046875 C14.02353516 6.61138672 14.02353516 6.61138672 15 7 C13 7.66666667 11 8.33333333 9 9 C8.67 9.99 8.34 10.98 8 12 C5.27573689 9.64722731 4.1858237 7.37503669 3 4 C2.67 4.66 2.34 5.32 2 6 C1.01 5.67 0.02 5.34 -1 5 C-0.67 3.35 -0.34 1.7 0 0 Z M10 8 C12 9 12 9 12 9 Z " fill="#B2B2B3" transform="translate(366,785)"/>
<path d="M0 0 C3.51815084 4.21958901 5.60859964 9.14399268 7.95117188 14.06835938 C9.92684431 18.13009827 12.00021691 21.57071776 15 25 C14.34 25.33 13.68 25.66 13 26 C12.360625 25.195625 11.72125 24.39125 11.0625 23.5625 C9.59396498 21.7249496 9.59396498 21.7249496 8 20 C7.67 20.66 7.34 21.32 7 22 C5.68 21.67 4.36 21.34 3 21 C3.66 21 4.32 21 5 21 C4.814375 20.401875 4.62875 19.80375 4.4375 19.1875 C4 17 4 17 5 14 C4.27860508 12.1014987 4.27860508 12.1014987 3.125 10.1875 C1.30354469 6.78954372 0.38770532 3.87705319 0 0 Z " fill="#DFDFDF" transform="translate(383,542)"/>
<path d="M0 0 C5.46864457 1.01591421 10.76390013 2.07091057 16 4 C13.10765685 4.82638376 11.11257569 5 8 5 C6.2488427 6.4166747 6.2488427 6.4166747 5 8 C3.02 7.34 1.04 6.68 -1 6 C-0.67 4.02 -0.34 2.04 0 0 Z " fill="#BDBDBD" transform="translate(422,808)"/>
<path d="M0 0 C0.33 0 0.66 0 1 0 C1 4.95 1 9.9 1 15 C-3.95 15 -8.9 15 -14 15 C-14 14.67 -14 14.34 -14 14 C-9.38 14 -4.76 14 0 14 C-1.39195915 11.2160817 -3.15575779 11.02101003 -6 10 C-5.67 9.01 -5.34 8.02 -5 7 C-4.34 6.71125 -3.68 6.4225 -3 6.125 C-0.70849401 5.1446618 -0.70849401 5.1446618 -0.25 2.375 C-0.1675 1.59125 -0.085 0.8075 0 0 Z " fill="#C6C6C6" transform="translate(769,567)"/>
<path d="M0 0 C0.99 0.66 1.98 1.32 3 2 C3 2.66 3 3.32 3 4 C2.34 4 1.68 4 1 4 C1.33 4.66 1.66 5.32 2 6 C2.99 6.33 3.98 6.66 5 7 C4.34 8.98 3.68 10.96 3 13 C1.68 13 0.36 13 -1 13 C-1.33 13.66 -1.66 14.32 -2 15 C-2 10.38 -2 5.76 -2 1 C-1.34 0.67 -0.68 0.34 0 0 Z " fill="#BEBEBE" transform="translate(199,526)"/>
<path d="M0 0 C0.33 0.66 0.66 1.32 1 2 C-0.21484375 4.8203125 -0.21484375 4.8203125 -1.9375 8.125 C-2.50339844 9.22070312 -3.06929687 10.31640625 -3.65234375 11.4453125 C-4.09707031 12.28835938 -4.54179687 13.13140625 -5 14 C-3.35 14 -1.7 14 0 14 C0 15.65 0 17.3 0 19 C-0.33 18.34 -0.66 17.68 -1 17 C-1.66 17 -2.32 17 -3 17 C-3.33 17.99 -3.66 18.98 -4 20 C-5.65 20 -7.3 20 -9 20 C-8.40440894 15.13127946 -6.27522585 11.40671159 -3.9375 7.1875 C-3.56044922 6.49462891 -3.18339844 5.80175781 -2.79492188 5.08789062 C-1.86916148 3.38871015 -0.93537688 1.69390575 0 0 Z " fill="#C1C1C2" transform="translate(235,356)"/>
<path d="M0 0 C0.99 0.66 1.98 1.32 3 2 C-3.93 8.93 -10.86 15.86 -18 23 C-18 20 -18 20 -15.1875 17.1875 C-14.35992187 16.41212891 -14.35992187 16.41212891 -13.515625 15.62109375 C-11.74980407 13.89432694 -11.74980407 13.89432694 -10.4375 10.75 C-8.68113109 7.38998991 -7.50495531 7.13911048 -4 6 C-1.56015502 3.99584162 -1.02876045 3.08628136 0 0 Z " fill="#C2C2C3" transform="translate(311,280)"/>
<path d="M0 0 C2.64 0 5.28 0 8 0 C8.6875 1.8125 8.6875 1.8125 9 4 C7.5625 5.5625 7.5625 5.5625 6 7 C6 7.99 6 8.98 6 10 C7.32 10.33 8.64 10.66 10 11 C8.02 11.33 6.04 11.66 4 12 C4 11.34 4 10.68 4 10 C2.68 9.67 1.36 9.34 0 9 C0.66 9 1.32 9 2 9 C1.979375 8.21625 1.95875 7.4325 1.9375 6.625 C2 4 2 4 3 2 C2.01 1.34 1.02 0.68 0 0 Z " fill="#BCBCBC" transform="translate(607,392)"/>
<path d="M0 0 C0.33 0 0.66 0 1 0 C1 2.31 1 4.62 1 7 C2.32 7.66 3.64 8.32 5 9 C5 10.65 5 12.3 5 14 C7.31 14.33 9.62 14.66 12 15 C12 15.33 12 15.66 12 16 C8.04 16 4.08 16 0 16 C0 10.72 0 5.44 0 0 Z " fill="#A7A8A9" transform="translate(751,567)"/>
<path d="M0 0 C0 0.66 0 1.32 0 2 C4.455 1.505 4.455 1.505 9 1 C4.58156271 3.94562486 0.70178067 4.12682559 -4.51953125 4.09765625 C-5.54111328 4.09443359 -6.56269531 4.09121094 -7.61523438 4.08789062 C-8.67033203 4.07951172 -9.72542969 4.07113281 -10.8125 4.0625 C-11.88693359 4.05798828 -12.96136719 4.05347656 -14.06835938 4.04882812 C-16.71229683 4.03707729 -19.35611952 4.02064787 -22 4 C-22 3.67 -22 3.34 -22 3 C-17.38 2.67 -12.76 2.34 -8 2 C-8 1.67 -8 1.34 -8 1 C-5.23735711 0.40267181 -2.83967231 0 0 0 Z " fill="#ECECEC" transform="translate(564,686)"/>
<path d="M0 0 C1 1 1 1 1 4 C-0.96875 6.48046875 -0.96875 6.48046875 -3.5 9.1875 C-4.3353125 10.08855469 -5.170625 10.98960937 -6.03125 11.91796875 C-6.6809375 12.60503906 -7.330625 13.29210937 -8 14 C-8 13.01 -8 12.02 -8 11 C-7.505 10.566875 -7.01 10.13375 -6.5 9.6875 C-4.69733636 7.99088479 -4.69733636 7.99088479 -4.6875 4.9375 C-4.70172688 1.87938172 -4.70172688 1.87938172 -7 0 C-3.98968256 -0.93423645 -3.13349732 -1.04449911 0 0 Z " fill="#BFBFC0" transform="translate(747,725)"/>
<path d="M0 0 C4.80359656 1.67040588 8.90408593 4.25115977 13.1875 6.9375 C13.91130859 7.38029297 14.63511719 7.82308594 15.38085938 8.27929688 C16.07373047 8.71177734 16.76660156 9.14425781 17.48046875 9.58984375 C18.10848389 9.98034912 18.73649902 10.37085449 19.38354492 10.77319336 C21 12 21 12 23 15 C19.12355776 13.62201874 16.12103994 11.80760274 12.8125 9.375 C9.70893901 6.81284275 9.70893901 6.81284275 6 6 C5.34 6.66 4.68 7.32 4 8 C3.34 7.01 2.68 6.02 2 5 C2.33 4.34 2.66 3.68 3 3 C2.01 2.01 1.02 1.02 0 0 Z " fill="#C4C4C5" transform="translate(668,233)"/>
<path d="M0 0 C0.33 0.99 0.66 1.98 1 3 C1.66 3.66 2.32 4.32 3 5 C2.01 5.33 1.02 5.66 0 6 C-0.66 5.67 -1.32 5.34 -2 5 C-1.01 6.32 -0.02 7.64 1 9 C0.34 9.66 -0.32 10.32 -1 11 C-1.33 11.99 -1.66 12.98 -2 14 C-3.65 13.67 -5.3 13.34 -7 13 C-5.35821735 8.22390502 -2.73453298 4.20617096 0 0 Z " fill="#BABABB" transform="translate(245,339)"/>
<path d="M0 0 C-1.19899698 3.0831351 -2.47700477 6.06279492 -4 9 C-4.66 9 -5.32 9 -6 9 C-9 3.25 -9 3.25 -9 1 C-5.94152152 0.45627049 -3.11227195 0 0 0 Z " fill="#BFBFC0" transform="translate(579,319)"/>
<path d="M0 0 C6.22987798 0.50512524 11.45474233 3.32604123 17 6 C13.69233843 7.10255386 13.19228042 6.82087211 10 6 C8.96875 6 7.9375 6 6.875 6 C4 6 4 6 2 5 C2 4.01 2 3.02 2 2 C1.34 1.34 0.68 0.68 0 0 Z " fill="#C1C1C1" transform="translate(392,797)"/>
<path d="M0 0 C-0.25 2.375 -0.25 2.375 -1 5 C-3.0625 6.3125 -3.0625 6.3125 -5 7 C-5 6.34 -5 5.68 -5 5 C-6.65 4.67 -8.3 4.34 -10 4 C-7.39928297 0.98864344 -3.94054294 -1.97027147 0 0 Z " fill="#DDDDDE" transform="translate(520,628)"/>
<path d="M0 0 C0.33 0 0.66 0 1 0 C1.33 4.62 1.66 9.24 2 14 C1.67 14 1.34 14 1 14 C0.67 15.65 0.34 17.3 0 19 C-0.66 18.67 -1.32 18.34 -2 18 C-2 15.69 -2 13.38 -2 11 C-2.66 10.67 -3.32 10.34 -4 10 C-3.34 9.67 -2.68 9.34 -2 9 C-1.67 8.01 -1.34 7.02 -1 6 C-1.66 5.67 -2.32 5.34 -3 5 C-2.34 4.67 -1.68 4.34 -1 4 C-0.34786708 1.97536745 -0.34786708 1.97536745 0 0 Z " fill="#C8C8C9" transform="translate(377,483)"/>
<path d="M0 0 C1.65 0.33 3.3 0.66 5 1 C4.01 1.495 4.01 1.495 3 2 C2.39938767 3.90178785 2.39938767 3.90178785 2 6 C1.67 6.99 1.34 7.98 1 9 C1.38932856 11.14255793 1.38932856 11.14255793 2 13 C-0.62002725 10.62949916 -2.35819909 8.12723983 -4 5 C-4 4.01 -4 3.02 -4 2 C-2.68 2.33 -1.36 2.66 0 3 C0 2.01 0 1.02 0 0 Z " fill="#BDBDBE" transform="translate(768,344)"/>
<path d="M0 0 C1.12588014 0.95729916 2.2506715 1.91587895 3.375 2.875 C4.00148438 3.40867187 4.62796875 3.94234375 5.2734375 4.4921875 C6.55836651 5.61432007 7.79371975 6.79371975 9 8 C11.57061311 8.64767793 11.57061311 8.64767793 14 9 C14.33 9.99 14.66 10.98 15 12 C16.49985609 13.66710346 16.49985609 13.66710346 18 15 C12.59857802 13.63747914 9.54284839 11.2437218 5.625 7.5 C5.07972656 7.00113281 4.53445313 6.50226562 3.97265625 5.98828125 C2.60192211 4.70686813 1.29502056 3.35788564 0 2 C0 1.34 0 0.68 0 0 Z " fill="#E6E7E7" transform="translate(494,666)"/>
<path d="M0 0 C0.99 0.495 0.99 0.495 2 1 C2.33333333 2.66666667 2.66666667 4.33333333 3 6 C3.66 6.33 4.32 6.66 5 7 C4 9 3 11 2 13 C2.66 13.66 3.32 14.32 4 15 C2.68 15 1.36 15 0 15 C0 10.05 0 5.1 0 0 Z " fill="#C8C8C8" transform="translate(238,500)"/>
<path d="M0 0 C1.65 0 3.3 0 5 0 C4.67 1.32 4.34 2.64 4 4 C4.99 3.34 5.98 2.68 7 2 C6.39254603 6.85963179 4.27241033 10.7405518 2 15 C0.39968656 11.79937313 1.96826309 9.27728194 3 6 C1.68 5.67 0.36 5.34 -1 5 C-0.67 3.35 -0.34 1.7 0 0 Z " fill="#C0C0C0" transform="translate(232,382)"/>
<path d="M0 0 C2.49415272 0.99766109 3.78740335 1.68616685 5.3125 3.9375 C6 6 6 6 5 9 C3.68 8.67 2.36 8.34 1 8 C1.33 9.65 1.66 11.3 2 13 C1.01 12.67 0.02 12.34 -1 12 C-0.25 6.25 -0.25 6.25 2 4 C0.68 3.34 -0.64 2.68 -2 2 C-1.34 1.34 -0.68 0.68 0 0 Z " fill="#BEBEBE" transform="translate(716,268)"/>
<path d="M0 0 C0.66 0 1.32 0 2 0 C2.66 0.99 3.32 1.98 4 3 C4.66 2.67 5.32 2.34 6 2 C6.99 2.99 7.98 3.98 9 5 C8.01 5.495 8.01 5.495 7 6 C9.31 8.64 11.62 11.28 14 14 C13.67 14.66 13.34 15.32 13 16 C8.1272992 11.38679214 3.72851381 6.59959949 0 1 C0 0.67 0 0.34 0 0 Z " fill="#C4C5C5" transform="translate(272,724)"/>
<path d="M0 0 C0.99 0 1.98 0 3 0 C3.66 0.99 4.32 1.98 5 3 C5.66 3.33 6.32 3.66 7 4 C6.34 5.65 5.68 7.3 5 9 C2.6568787 8.74438677 0.32156597 8.40729228 -2 8 C-2.33 7.34 -2.66 6.68 -3 6 C-2.01 6 -1.02 6 0 6 C0 4.02 0 2.04 0 0 Z " fill="#B0B0B1" transform="translate(585,348)"/>
<path d="M0 0 C0.33 0.66 0.66 1.32 1 2 C1.99 2.33 2.98 2.66 4 3 C4.66 3.33 5.32 3.66 6 4 C6.99 4.33 7.98 4.66 9 5 C2.375 8.125 2.375 8.125 -1 7 C-2.1875 3.9375 -2.1875 3.9375 -3 1 C-2.01 0.67 -1.02 0.34 0 0 Z " fill="#BBBBBB" transform="translate(402,219)"/>
<path d="M0 0 C2.0839403 0.11443603 4.16716493 0.24195547 6.25 0.375 C7.41015625 0.44460938 8.5703125 0.51421875 9.765625 0.5859375 C12.70694334 0.96248308 14.49949011 1.4774123 17 3 C14.36095629 4.41377341 11.92879371 5.37240135 9 6 C8.67 4.68 8.34 3.36 8 2 C6.68 2 5.36 2 4 2 C3.67 2.66 3.34 3.32 3 4 C3 3.01 3 2.02 3 1 C2.01 0.67 1.02 0.34 0 0 Z " fill="#C5C6C6" transform="translate(457,817)"/>
<path d="M0 0 C3.9492568 0.55105909 7.34920174 1.38935371 11 3 C8.09375703 3.73989213 5.17849225 4.41650906 2.25 5.0625 C1.05117188 5.32740234 1.05117188 5.32740234 -0.171875 5.59765625 C-0.77515625 5.73042969 -1.3784375 5.86320313 -2 6 C-1.34 4.02 -0.68 2.04 0 0 Z " fill="#BDBDBE" transform="translate(410,804)"/>
<path d="M0 0 C2.10388569 -0.05402274 4.20816714 -0.09280256 6.3125 -0.125 C8.07013672 -0.15980469 8.07013672 -0.15980469 9.86328125 -0.1953125 C13 0 13 0 16 2 C14.02 2.33 12.04 2.66 10 3 C10.33 3.66 10.66 4.32 11 5 C10.01 5.33 9.02 5.66 8 6 C7.01 5.01 6.02 4.02 5 3 C5.99 2.67 6.98 2.34 8 2 C5.03 2 2.06 2 -1 2 C-0.67 1.34 -0.34 0.68 0 0 Z " fill="#C1C1C2" transform="translate(582,272)"/>
<path d="M0 0 C4.29 0 8.58 0 13 0 C13.33 1.65 13.66 3.3 14 5 C14.66 5.33 15.32 5.66 16 6 C14.35 6.66 12.7 7.32 11 8 C10.4375 6.0625 10.4375 6.0625 10 4 C10.33 3.67 10.66 3.34 11 3 C8.70370006 1.85185003 6.92301914 1.69230191 4.375 1.4375 C3.55773437 1.35371094 2.74046875 1.26992188 1.8984375 1.18359375 C1.27195312 1.12300781 0.64546875 1.06242188 0 1 C0 0.67 0 0.34 0 0 Z " fill="#C2C2C3" transform="translate(485,821)"/>
<path d="M0 0 C0 0.66 0 1.32 0 2 C-0.94875 2.12375 -1.8975 2.2475 -2.875 2.375 C-6.08667191 2.71687177 -6.08667191 2.71687177 -8 5 C-7.67 5.99 -7.34 6.98 -7 8 C-10 7 -10 7 -11.0625 5.0625 C-11.371875 4.381875 -11.68125 3.70125 -12 3 C-12.66 2.34 -13.32 1.68 -14 1 C-12.41693353 0.83081732 -10.83353281 0.66476064 -9.25 0.5 C-8.36828125 0.4071875 -7.4865625 0.314375 -6.578125 0.21875 C-4 0 -4 0 0 0 Z " fill="#AEAEAF" transform="translate(558,818)"/>
<path d="M0 0 C0.33 0 0.66 0 1 0 C1.1546875 1.175625 1.1546875 1.175625 1.3125 2.375 C1.77595022 5.33045181 1.77595022 5.33045181 5 7 C4.01 9.64 3.02 12.28 2 15 C1.01 14.67 0.02 14.34 -1 14 C-0.67 9.38 -0.34 4.76 0 0 Z " fill="#CCCCCD" transform="translate(335,514)"/>
<path d="M0 0 C0.66 0 1.32 0 2 0 C1.74385063 4.35453922 1.42722153 6.49609768 -1.4375 9.875 C-5.22403295 13.01505171 -7.13794125 13.10569693 -12 13 C-11.401875 12.71125 -10.80375 12.4225 -10.1875 12.125 C-7.80672208 10.95257974 -7.80672208 10.95257974 -5 9 C-2.8125 8.375 -2.8125 8.375 -1 8 C-0.67 5.36 -0.34 2.72 0 0 Z " fill="#C2C2C3" transform="translate(737,495)"/>
<path d="M0 0 C2 1.375 2 1.375 4 3 C4 3.66 4 4.32 4 5 C5.65 5.33 7.3 5.66 9 6 C8.62875 6.53625 8.2575 7.0725 7.875 7.625 C6.65142617 10.94612897 7.69536989 12.81090417 9 16 C6.18368359 13.50506504 4.59044019 10.73437182 2.8125 7.4375 C2.28269531 6.46683594 1.75289062 5.49617188 1.20703125 4.49609375 C0 2 0 2 0 0 Z " fill="#C3C3C3" transform="translate(770,357)"/>
<path d="M0 0 C3.63 0 7.26 0 11 0 C11.66 1.98 12.32 3.96 13 6 C11.02 6.99 11.02 6.99 9 8 C8.06576355 4.98968256 7.95550089 4.13349732 9 1 C6.03 1 3.06 1 0 1 C0 0.67 0 0.34 0 0 Z " fill="#A6A6A6" transform="translate(530,820)"/>
<path d="M0 0 C1.32 0.66 2.64 1.32 4 2 C4.33 1.34 4.66 0.68 5 0 C4.75 1.875 4.75 1.875 4 4 C2.02 4.99 2.02 4.99 0 6 C0 9.3 0 12.6 0 16 C-0.33 16 -0.66 16 -1 16 C-1.02685095 13.52076199 -1.04676547 11.0418116 -1.0625 8.5625 C-1.07506836 7.50192383 -1.07506836 7.50192383 -1.08789062 6.41992188 C-1.09653588 4.61306441 -1.05220011 2.80612397 -1 1 C-0.67 0.67 -0.34 0.34 0 0 Z " fill="#C2C2C2" transform="translate(568,371)"/>
<path d="M0 0 C2 4 2 4 1.375 6.1875 C0 8 0 8 -1.9375 8.75 C-4 9 -4 9 -7 9 C-4.69 6.03 -2.38 3.06 0 0 Z " fill="#C2C2C3" transform="translate(263,313)"/>
<path d="M0 0 C4.98012761 1.50912958 8.24259942 4.55661849 12 8 C8.79937313 9.60031344 6.27728194 8.03173691 3 7 C2.87625 6.401875 2.7525 5.80375 2.625 5.1875 C2.04524015 2.73768652 2.04524015 2.73768652 0 0 Z " fill="#C1C1C2" transform="translate(324,755)"/>
<path d="M0 0 C1.26237731 2.52475462 1.09856404 4.31200466 1.0625 7.125 C1.05347656 8.03507813 1.04445313 8.94515625 1.03515625 9.8828125 C1.02355469 10.58148437 1.01195312 11.28015625 1 12 C-1.98090266 8.38775335 -2.55066068 5.67312888 -3 1 C-2.01 0.67 -1.02 0.34 0 0 Z M-5 8 C-4.01 8 -3.02 8 -2 8 C-2 8.99 -2 9.98 -2 11 C-3.32 11.33 -4.64 11.66 -6 12 C-5.67 10.68 -5.34 9.36 -5 8 Z " fill="#AFAEAF" transform="translate(820,570)"/>
<path d="M0 0 C1.32 0 2.64 0 4 0 C3.71812064 1.79323253 3.4241719 3.58457126 3.125 5.375 C2.96257813 6.37273438 2.80015625 7.37046875 2.6328125 8.3984375 C2 11 2 11 0 13 C0 10.69 0 8.38 0 6 C-0.66 5.67 -1.32 5.34 -2 5 C-2 4.34 -2 3.68 -2 3 C-1.01 3 -0.02 3 1 3 C1.33 2.34 1.66 1.68 2 1 C1.34 0.67 0.68 0.34 0 0 Z " fill="#E2E3E3" transform="translate(534,546)"/>
<path d="M0 0 C0.66 0.33 1.32 0.66 2 1 C1.67 1.99 1.34 2.98 1 4 C-0.32 4 -1.64 4 -3 4 C-1.68 4.66 -0.36 5.32 1 6 C0.01 6.99 -0.98 7.98 -2 9 C-2.66 8.67 -3.32 8.34 -4 8 C-4 7.34 -4 6.68 -4 6 C-4.66 6 -5.32 6 -6 6 C-6 5.34 -6 4.68 -6 4 C-4.03852126 2.61061923 -2.03833424 1.2739589 0 0 Z " fill="#BDBDBD" transform="translate(645,374)"/>
<path d="M0 0 C4.29 0 8.58 0 13 0 C13 0.99 13 1.98 13 3 C9.04 3 5.08 3 1 3 C0.67 2.01 0.34 1.02 0 0 Z " fill="#ADADAE" transform="translate(522,190)"/>
<path d="M0 0 C1.10844919 3.32534757 0.84454356 5.62182575 0 9 C0.66 9.33 1.32 9.66 2 10 C0.68 10.33 -0.64 10.66 -2 11 C-2.99 8.36 -3.98 5.72 -5 3 C-3.35 2.67 -1.7 2.34 0 2 C0 1.34 0 0.68 0 0 Z " fill="#B0B0B0" transform="translate(758,705)"/>
<path d="M0 0 C0.99 0.33 1.98 0.66 3 1 C2.67 1.66 2.34 2.32 2 3 C2.99 3.33 3.98 3.66 5 4 C3.47764564 7.04470873 0.81575514 8.20270948 -2 10 C-2 9.01 -2 8.02 -2 7 C-1.34 6.67 -0.68 6.34 0 6 C-0.66 4.68 -1.32 3.36 -2 2 C-1.34 2 -0.68 2 0 2 C0 1.34 0 0.68 0 0 Z " fill="#B1B1B1" transform="translate(806,612)"/>
<path d="M0 0 C1.65 0 3.3 0 5 0 C5 1.98 5 3.96 5 6 C2.37886292 6 0.49064888 5.68707555 -2 5 C-1.34 3.35 -0.68 1.7 0 0 Z " fill="#ACACAC" transform="translate(210,469)"/>
<path d="M0 0 C0.96661363 3.12180401 0.98988909 5.52083795 0.5625 8.75 C0.46066406 9.54921875 0.35882812 10.3484375 0.25390625 11.171875 C0.12822266 12.07679688 0.12822266 12.07679688 0 13 C-2.95183101 10.04816899 -3.08663988 7.04488053 -4 3 C-2.68 2.01 -1.36 1.02 0 0 Z " fill="#BFBFC0" transform="translate(793,393)"/>
<path d="M0 0 C0.66 0.33 1.32 0.66 2 1 C2 2.65 2 4.3 2 6 C0.68 6 -0.64 6 -2 6 C-2 5.34 -2 4.68 -2 4 C-2.99 4.33 -3.98 4.66 -5 5 C-4 2 -4 2 -2.0625 0.75 C-1.381875 0.5025 -0.70125 0.255 0 0 Z " fill="#BDBDBE" transform="translate(658,782)"/>
<path d="M0 0 C2.3125 0.8125 2.3125 0.8125 4 2 C3.54625 2.433125 3.0925 2.86625 2.625 3.3125 C0.79975666 5.10798342 0.79975666 5.10798342 -1 8 C-1.33 7.01 -1.66 6.02 -2 5 C-2.99 4.34 -3.98 3.68 -5 3 C-2.75 1.375 -2.75 1.375 0 0 Z " fill="#BDBEBE" transform="translate(665,778)"/>
<path d="M0 0 C5.28 0 10.56 0 16 0 C15.67 0.66 15.34 1.32 15 2 C14.01 2 13.02 2 12 2 C11.67 2.66 11.34 3.32 11 4 C9.54054712 3.91291331 8.08234132 3.80473093 6.625 3.6875 C5.81289063 3.62949219 5.00078125 3.57148438 4.1640625 3.51171875 C2 3 2 3 0 0 Z " fill="#C7C7C8" transform="translate(672,405)"/>
<path d="M0 0 C0.763125 0.350625 1.52625 0.70125 2.3125 1.0625 C5.04759379 2.32360884 5.04759379 2.32360884 8 1 C7.6875 2.875 7.6875 2.875 7 5 C6.01 5.66 5.02 6.32 4 7 C3.01 6.67 2.02 6.34 1 6 C1 4.68 1 3.36 1 2 C0.67 1.34 0.34 0.68 0 0 Z " fill="#BABABA" transform="translate(585,399)"/>
<path d="M0 0 C1.32 0.33 2.64 0.66 4 1 C4.0825 1.61875 4.165 2.2375 4.25 2.875 C4.91214206 5.53489979 4.91214206 5.53489979 9 7 C4.545 6.01 4.545 6.01 0 5 C0 3.35 0 1.7 0 0 Z " fill="#BCBCBD" transform="translate(398,812)"/>
<path d="M0 0 C0 4.09089094 -1.69866948 5.44918487 -4.33203125 8.4140625 C-6.36890116 10.35075848 -8.29054445 11.28279118 -11 12 C-7.49102731 7.81576108 -3.91939465 3.80411834 0 0 Z " fill="#CECECE" transform="translate(722,732)"/>
<path d="M0 0 C2.97 0.33 5.94 0.66 9 1 C8.34 2.32 7.68 3.64 7 5 C6.34 5 5.68 5 5 5 C4.67 5.66 4.34 6.32 4 7 C3.566875 5.824375 3.566875 5.824375 3.125 4.625 C2.15087746 1.90328368 2.15087746 1.90328368 0 0 Z " fill="#C1C1C1" transform="translate(570,196)"/>
<path d="M0 0 C0.0825 0.61875 0.165 1.2375 0.25 1.875 C0.81258459 4.18437567 0.81258459 4.18437567 3.0625 5.25 C3.701875 5.4975 4.34125 5.745 5 6 C5 6.33 5 6.66 5 7 C2.03 6.67 -0.94 6.34 -4 6 C-3.34 5.67 -2.68 5.34 -2 5 C-1.27840576 3.35636866 -0.60648579 1.68949614 0 0 Z " fill="#C2C1C2" transform="translate(452,825)"/>
<path d="M0 0 C0.33 2.31 0.66 4.62 1 7 C0.01 7 -0.98 7 -2 7 C-2 6.01 -2 5.02 -2 4 C-3.32 3.67 -4.64 3.34 -6 3 C-3.375 0 -3.375 0 0 0 Z M-4 7 C-2 8 -2 8 -2 8 Z " fill="#ADADAE" transform="translate(600,808)"/>
<path d="M0 0 C1.65 0 3.3 0 5 0 C4.67 0.515625 4.34 1.03125 4 1.5625 C2.67989123 4.78026512 2.86757895 7.5570528 3 11 C0.60236815 8.60236815 0.65719414 7.66726502 0.375 4.375 C0.30023438 3.55773437 0.22546875 2.74046875 0.1484375 1.8984375 C0.09945313 1.27195312 0.05046875 0.64546875 0 0 Z " fill="#E4E4E5" transform="translate(337,536)"/>
<path d="M0 0 C0.99 0.33 1.98 0.66 3 1 C2.113125 1.556875 1.22625 2.11375 0.3125 2.6875 C-2.84279378 4.77853792 -5.39868111 7.24566235 -8 10 C-8 7 -8 7 -5.6875 4.4375 C-3 2 -3 2 0 0 Z " fill="#C5C6C6" transform="translate(577,274)"/>
<path d="M0 0 C1.25541557 3.76624671 0.37061958 5.37188934 -1 9 C-1.66 9 -2.32 9 -3 9 C-3.33 9.66 -3.66 10.32 -4 11 C-3.39301257 6.87248551 -1.96189209 3.6678852 0 0 Z " fill="#BFBFC0" transform="translate(788,632)"/>
<path d="M0 0 C0.99 0.99 1.98 1.98 3 3 C2.67 3.66 2.34 4.32 2 5 C-0.64860427 5.59355614 -3.29197322 5.74209269 -6 6 C-5.01 5.67 -4.02 5.34 -3 5 C-2.6278958 3.67696283 -2.29369827 2.34262065 -2 1 C-1.34 0.67 -0.68 0.34 0 0 Z " fill="#E0E1E1" transform="translate(474,614)"/>
<path d="M0 0 C0.66 0.33 1.32 0.66 2 1 C1.4375 2.875 1.4375 2.875 0 5 C-3.625 6.25 -3.625 6.25 -7 7 C-4.66666667 4.66666667 -2.33333333 2.33333333 0 0 Z " fill="#C2C2C2" transform="translate(322,253)"/>
<path d="M0 0 C3.45925163 1.2491742 6.14693203 2.67527795 9 5 C8.01 5.33 7.02 5.66 6 6 C5.34 6.66 4.68 7.32 4 8 C3.34 7.01 2.68 6.02 2 5 C2.33 4.34 2.66 3.68 3 3 C2.01 2.01 1.02 1.02 0 0 Z " fill="#BEBFBF" transform="translate(668,233)"/>
<path d="M0 0 C1.32 0 2.64 0 4 0 C4 1.65 4 3.3 4 5 C2.02 5 0.04 5 -2 5 C-2 3 -2 3 0 1 C0 0.67 0 0.34 0 0 Z " fill="#BDBDBD" transform="translate(548,830)"/>
<path d="M0 0 C1.32 0.66 2.64 1.32 4 2 C3.67 3.65 3.34 5.3 3 7 C1.68 6.67 0.36 6.34 -1 6 C-1.042721 4.33388095 -1.04063832 2.66617115 -1 1 C-0.67 0.67 -0.34 0.34 0 0 Z " fill="#BBBBBB" transform="translate(394,808)"/>
<path d="M0 0 C1.32 0.66 2.64 1.32 4 2 C3.34 2.66 2.68 3.32 2 4 C4.475 5.98 4.475 5.98 7 8 C3.32579134 7.69381595 2.21864487 7.24228216 -0.3125 4.4375 C-0.869375 3.633125 -1.42625 2.82875 -2 2 C-1.34 2 -0.68 2 0 2 C0 1.34 0 0.68 0 0 Z " fill="#C6C7C7" transform="translate(262,572)"/>
<path d="M0 0 C2.45823172 3.68734758 3.01242616 6.69699971 4 11 C3.34 11 2.68 11 2 11 C-0.40240978 7.97474324 -1.05541631 6.5874129 -0.6875 2.6875 C-0.460625 1.800625 -0.23375 0.91375 0 0 Z " fill="#212224" transform="translate(793,409)"/>
<path d="M0 0 C1.0169313 2.65498232 1.13022151 3.69155375 0.00390625 6.359375 C-0.47175781 7.14828125 -0.94742188 7.9371875 -1.4375 8.75 C-2.14712891 9.94882812 -2.14712891 9.94882812 -2.87109375 11.171875 C-3.24363281 11.77515625 -3.61617187 12.3784375 -4 13 C-5 10 -5 10 -4.00390625 7.51953125 C-3.52824219 6.62621094 -3.05257812 5.73289062 -2.5625 4.8125 C-2.08941406 3.91144531 -1.61632812 3.01039063 -1.12890625 2.08203125 C-0.75636719 1.39496094 -0.38382813 0.70789063 0 0 Z " fill="#C5C6C6" transform="translate(225,377)"/>
<path d="M0 0 C2.64 0 5.28 0 8 0 C7.01 0.33 6.02 0.66 5 1 C5.185625 1.61875 5.37125 2.2375 5.5625 2.875 C6 5 6 5 5 7 C4.34 7 3.68 7 3 7 C3 5.68 3 4.36 3 3 C1.5833253 1.2488427 1.5833253 1.2488427 0 0 Z " fill="#C1C1C1" transform="translate(541,820)"/>
<path d="M0 0 C-0.33 1.65 -0.66 3.3 -1 5 C-3.31 4.01 -5.62 3.02 -8 2 C-8 1.67 -8 1.34 -8 1 C-5.23735711 0.40267181 -2.83967231 0 0 0 Z " fill="#AFAFB0" transform="translate(573,815)"/>
<path d="M0 0 C0.99 0 1.98 0 3 0 C2.67 0.99 2.34 1.98 2 3 C1.34 3 0.68 3 0 3 C-0.28875 3.969375 -0.5775 4.93875 -0.875 5.9375 C-2 9 -2 9 -4 10 C-3.52449439 8.51965236 -3.04448784 7.04074979 -2.5625 5.5625 C-2.29566406 4.73878906 -2.02882813 3.91507813 -1.75390625 3.06640625 C-1 1 -1 1 0 0 Z " fill="#101112" transform="translate(619,650)"/>
<path d="M0 0 C0 0.99 0 1.98 0 3 C-2.3125 5.25 -2.3125 5.25 -5 7 C-5.99 6.67 -6.98 6.34 -8 6 C-7.34 4.35 -6.68 2.7 -6 1 C-5.67 1.99 -5.34 2.98 -5 4 C-3.35 2.68 -1.7 1.36 0 0 Z " fill="#C0C1C1" transform="translate(700,410)"/>
<path d="M0 0 C2.0625 0.4375 2.0625 0.4375 4 1 C3.34 2.32 2.68 3.64 2 5 C1.34 5 0.68 5 0 5 C-0.66 5.66 -1.32 6.32 -2 7 C-1.125 1.125 -1.125 1.125 0 0 Z " fill="#BEBEBE" transform="translate(217,396)"/>
<path d="M0 0 C0.33 1.32 0.66 2.64 1 4 C-1.63904371 5.41377341 -4.07120629 6.37240135 -7 7 C-4.78071806 4.09197539 -3.07030857 2.04687238 0 0 Z " fill="#C3C3C3" transform="translate(611,314)"/>
<path d="M0 0 C0 0.33 0 0.66 0 1 C-7.50769231 1.36923077 -7.50769231 1.36923077 -10 -0.5 C-10.33 -0.995 -10.66 -1.49 -11 -2 C-6.38619749 -3.49270081 -4.10342037 -2.38570952 0 0 Z " fill="#ABAAAB" transform="translate(545,207)"/>
<path d="M0 0 C1.32 0 2.64 0 4 0 C2.81323934 4.10801767 2.10551666 5.89448334 -1 9 C-0.67 6.03 -0.34 3.06 0 0 Z " fill="#C6C6C7" transform="translate(788,661)"/>
<path d="M0 0 C0.66 0.33 1.32 0.66 2 1 C2 2.65 2 4.3 2 6 C1.34 5.34 0.68 4.68 0 4 C-0.66 4.66 -1.32 5.32 -2 6 C-2 5.34 -2 4.68 -2 4 C-2.66 3.67 -3.32 3.34 -4 3 C-3 1 -3 1 0 0 Z " fill="#DEDEDE" transform="translate(377,519)"/>
<path d="M0 0 C1.485 0.99 1.485 0.99 3 2 C2.34 2 1.68 2 1 2 C1 6.95 1 11.9 1 17 C0.67 17 0.34 17 0 17 C-0.19386492 14.35448944 -0.38038267 11.70882217 -0.5625 9.0625 C-0.61857422 8.30775391 -0.67464844 7.55300781 -0.73242188 6.77539062 C-0.86176157 4.85254042 -0.93516912 2.92610452 -1 1 C-0.67 0.67 -0.34 0.34 0 0 Z " fill="#262729" transform="translate(237,498)"/>
<path d="M0 0 C0 0.66 0 1.32 0 2 C-1.093125 2.12375 -2.18625 2.2475 -3.3125 2.375 C-7.07381802 2.75464801 -7.07381802 2.75464801 -10 5 C-7.62417533 -0.26075462 -5.61350876 -0.1220328 0 0 Z " fill="#C8C9CA" transform="translate(728,486)"/>
<path d="M0 0 C0.433125 0.61875 0.86625 1.2375 1.3125 1.875 C2.99740483 4.2197245 2.99740483 4.2197245 6 6 C2.25 9 2.25 9 0 9 C0 6.03 0 3.06 0 0 Z " fill="#C5C6C6" transform="translate(809,473)"/>
<path d="M0 0 C0.99 0.66 1.98 1.32 3 2 C3 2.66 3 3.32 3 4 C-0.01031744 4.93423645 -0.86650268 5.04449911 -4 4 C-4 3.34 -4 2.68 -4 2 C-2.68 1.34 -1.36 0.68 0 0 Z " fill="#B1B1B2" transform="translate(806,422)"/>
<path d="M0 0 C0.66 0.33 1.32 0.66 2 1 C1.2575 1.6496875 1.2575 1.6496875 0.5 2.3125 C-1.33218192 3.99740483 -1.33218192 3.99740483 -1 7 C-1.66 7.66 -2.32 8.32 -3 9 C-3 8.34 -3 7.68 -3 7 C-3.66 6.67 -4.32 6.34 -5 6 C-3.35 4.02 -1.7 2.04 0 0 Z " fill="#DDDDDE" transform="translate(366,414)"/>
<path d="M0 0 C0.33 0.99 0.66 1.98 1 3 C-0.9375 6.1875 -0.9375 6.1875 -3 9 C-3.5534764 6.92446352 -4 5.15634036 -4 3 C-3.34 3 -2.68 3 -2 3 C-2 2.34 -2 1.68 -2 1 C-1.34 0.67 -0.68 0.34 0 0 Z " fill="#BCBCBD" transform="translate(588,356)"/>
<path d="M0 0 C0.33 0 0.66 0 1 0 C0.88490339 1.41750563 0.75746342 2.83401169 0.625 4.25 C0.55539062 5.03890625 0.48578125 5.8278125 0.4140625 6.640625 C-0.01507113 9.085877 -0.78600638 10.84836903 -2 13 C-3.6415049 9.7169902 -2.51888624 6.57454967 -2 3 C-1.34 3 -0.68 3 0 3 C0 2.01 0 1.02 0 0 Z " fill="#0D0E0F" transform="translate(679,320)"/>
<path d="M0 0 C0 0.99 0 1.98 0 3 C0.99 3 1.98 3 3 3 C3 3.66 3 4.32 3 5 C2.01 5 1.02 5 0 5 C-0.33 5.66 -0.66 6.32 -1 7 C-2.32 5.35 -3.64 3.7 -5 2 C-2 0 -2 0 0 0 Z " fill="#BDBDBD" transform="translate(372,223)"/>
<path d="M0 0 C2.72107452 2.3500189 3.96702492 4.55674975 5 8 C4.67 8.99 4.34 9.98 4 11 C3.71125 10.38125 3.4225 9.7625 3.125 9.125 C2.06279958 6.86674235 2.06279958 6.86674235 0 5 C-0.125 2.375 -0.125 2.375 0 0 Z " fill="#C2C3C3" transform="translate(233,630)"/>
<path d="M0 0 C0.66 0.33 1.32 0.66 2 1 C2.625 3.0625 2.625 3.0625 3 5 C2.01 5.495 2.01 5.495 1 6 C0.34 6.99 -0.32 7.98 -1 9 C-1.33 7.02 -1.66 5.04 -2 3 C-1.34 2.67 -0.68 2.34 0 2 C0 1.34 0 0.68 0 0 Z " fill="#BFBFBF" transform="translate(254,519)"/>
<path d="M0 0 C0.33 1.32 0.66 2.64 1 4 C-3.75 7.875 -3.75 7.875 -6 9 C-4.68775452 5.06326356 -3.08089673 2.77280706 0 0 Z " fill="#E4E4E5" transform="translate(360,421)"/>
<path d="M0 0 C-2.97 1.32 -5.94 2.64 -9 4 C-9 3.01 -9 2.02 -9 1 C-5.19495213 -0.79682816 -4.29399165 -1.07349791 0 0 Z " fill="#BCBDBD" transform="translate(616,804)"/>
<path d="M0 0 C1.485 0.99 1.485 0.99 3 2 C2.67 4.64 2.34 7.28 2 10 C-1.125 3.75 -1.125 3.75 0 0 Z " fill="#B1B1B1" transform="translate(214,563)"/>
<path d="M0 0 C1.32 0.33 2.64 0.66 4 1 C2 4 2 4 -0.125 4.6875 C-0.74375 4.790625 -1.3625 4.89375 -2 5 C-1.34 3.35 -0.68 1.7 0 0 Z " fill="#DCDCDC" transform="translate(484,562)"/>
<path d="M0 0 C-0.66 1.32 -1.32 2.64 -2 4 C-2.66 3.67 -3.32 3.34 -4 3 C-4.99 3 -5.98 3 -7 3 C-7.66 2.67 -8.32 2.34 -9 2 C-5.5647952 -0.29013653 -4.014669 -0.17842973 0 0 Z " fill="#B6B6B7" transform="translate(725,545)"/>
<path d="M0 0 C0.33 0.99 0.66 1.98 1 3 C1.66 3.66 2.32 4.32 3 5 C2.01 5.33 1.02 5.66 0 6 C-0.66 5.67 -1.32 5.34 -2 5 C-2.33 5.99 -2.66 6.98 -3 8 C-3.33 7.34 -3.66 6.68 -4 6 C-2.68 4.02 -1.36 2.04 0 0 Z " fill="#C6C7C7" transform="translate(245,339)"/>
<path d="M0 0 C1.98 0 3.96 0 6 0 C6.33 0.66 6.66 1.32 7 2 C6.34 2 5.68 2 5 2 C5 2.66 5 3.32 5 4 C5.66 4.33 6.32 4.66 7 5 C5.68 5.33 4.36 5.66 3 6 C3 4.68 3 3.36 3 2 C2.01 1.34 1.02 0.68 0 0 Z " fill="#AFAFAF" transform="translate(615,219)"/>
<path d="M0 0 C0.66 0.33 1.32 0.66 2 1 C2 2.32 2 3.64 2 5 C1.34 5 0.68 5 0 5 C-0.33 5.66 -0.66 6.32 -1 7 C-1.99 6.67 -2.98 6.34 -4 6 C-3.34 6 -2.68 6 -2 6 C-1.7834375 5.071875 -1.7834375 5.071875 -1.5625 4.125 C-1 2 -1 2 0 0 Z " fill="#AFAFAF" transform="translate(571,205)"/>
<path d="M0 0 C0.99 0.33 1.98 0.66 3 1 C2.67 1.99 2.34 2.98 2 4 C0.35 4.33 -1.3 4.66 -3 5 C-2.625 3.0625 -2.625 3.0625 -2 1 C-1.34 0.67 -0.68 0.34 0 0 Z " fill="#ADAEAE" transform="translate(448,826)"/>
<path d="M0 0 C2.1875 0.3125 2.1875 0.3125 4 1 C3.34 2.32 2.68 3.64 2 5 C1.34 4.34 0.68 3.68 0 3 C-0.99 3 -1.98 3 -3 3 C-1.75 1.4375 -1.75 1.4375 0 0 Z " fill="#C0C0C1" transform="translate(698,754)"/>
<path d="M0 0 C0.66 0 1.32 0 2 0 C2 0.66 2 1.32 2 2 C2.99 2.33 3.98 2.66 5 3 C4.34 3.66 3.68 4.32 3 5 C1.68 5 0.36 5 -1 5 C-0.67 3.35 -0.34 1.7 0 0 Z " fill="#D0CFD0" transform="translate(497,602)"/>
<path d="M0 0 C0.33 0.66 0.66 1.32 1 2 C3.02463255 2.65213292 3.02463255 2.65213292 5 3 C4.67 3.99 4.34 4.98 4 6 C3.01 6 2.02 6 1 6 C0.67 4.02 0.34 2.04 0 0 Z " fill="#AEAEAE" transform="translate(799,597)"/>
<path d="M0 0 C-0.66 0.66 -1.32 1.32 -2 2 C-1.01 2.99 -0.02 3.98 1 5 C-2.65316671 3.75023244 -3.78065836 3.32901247 -6 0 C-3.50907189 -1.24546405 -2.58919267 -0.7767578 0 0 Z " fill="#C3C4C4" transform="translate(656,406)"/>
<path d="M0 0 C-0.25561323 2.3431213 -0.59270772 4.67843403 -1 7 C-1.99 7.495 -1.99 7.495 -3 8 C-3.6875 5.6875 -3.6875 5.6875 -4 3 C-1.72413793 0 -1.72413793 0 0 0 Z " fill="#A7A7A8" transform="translate(707,385)"/>
<path d="M0 0 C0.66 0.33 1.32 0.66 2 1 C1.67 2.32 1.34 3.64 1 5 C2.32 5.66 3.64 6.32 5 7 C2.03 6.505 2.03 6.505 -1 6 C-1 3 -1 3 0 0 Z " fill="#C1C2C2" transform="translate(617,220)"/>
</svg>
